<svg width="25" height="24" viewBox="0 0 25 24" fill="none" xmlns="http://www.w3.org/2000/svg">
<path d="M1.14062 9.14598C1.14062 14.0804 5.77176 18.9193 12.2307 23.2084C12.3674 23.2947 12.5726 23.381 12.7375 23.381C12.9035 23.381 13.0929 23.2947 13.2443 23.2084C19.6886 18.9193 24.3344 14.0804 24.3344 9.14598C24.3344 5.19537 21.5917 2.34375 17.916 2.34375C15.7795 2.34375 13.695 3.58705 12.7375 5.54136C11.7811 3.58814 9.6955 2.34375 7.55899 2.34375C3.88332 2.34375 1.14062 5.19537 1.14062 9.14598ZM1.85463 9.14598C1.85463 5.5601 4.26486 3.05776 7.5579 3.05776C9.79675 3.05776 11.376 4.43203 12.3217 6.16217C12.4504 6.40537 12.5693 6.50408 12.7375 6.50408C12.9068 6.50408 13.0077 6.40424 13.1533 6.16217C14.0888 4.43422 15.6793 3.05776 17.9182 3.05776C21.1966 3.05776 23.6203 5.5601 23.6203 9.14598C23.6203 13.8218 18.8359 18.615 12.8889 22.5887C12.8351 22.6245 12.7846 22.6582 12.7375 22.6582C12.6903 22.6582 12.6399 22.6245 12.5872 22.5887C6.63906 18.615 1.85463 13.8218 1.85463 9.14598Z" fill="#274138"/>
<path d="M22.1438 22.9452C22.2904 23.0919 22.5154 23.0919 22.6609 22.9452C22.8065 22.7986 22.793 22.5904 22.6609 22.4438L0.951348 0.735257C0.819298 0.603226 0.595441 0.573994 0.434149 0.735257C0.3032 0.866225 0.3032 1.10579 0.434149 1.23675L22.1438 22.9452Z" fill="#274138"/>
</svg>
