<svg width="25" height="24" viewBox="0 0 25 24" fill="none" xmlns="http://www.w3.org/2000/svg">
<path d="M1.64062 9.14598C1.64062 14.0804 6.27176 18.9193 12.7307 23.2084C12.8674 23.2947 13.0726 23.381 13.2375 23.381C13.4035 23.381 13.5929 23.2947 13.7443 23.2084C20.1886 18.9193 24.8344 14.0804 24.8344 9.14598C24.8344 5.19537 22.0917 2.34375 18.416 2.34375C16.2795 2.34375 14.195 3.58705 13.2375 5.54136C12.2811 3.58814 10.1955 2.34375 8.05899 2.34375C4.38332 2.34375 1.64062 5.19537 1.64062 9.14598Z" fill="#274138"/>
<path d="M22.6438 22.9452C22.7904 23.0919 23.0154 23.0919 23.1609 22.9452C23.3065 22.7986 23.293 22.5904 23.1609 22.4438L1.45135 0.735257C1.3193 0.603226 1.09544 0.573994 0.934149 0.735257C0.8032 0.866225 0.8032 1.10579 0.934149 1.23675L22.6438 22.9452Z" fill="#274138"/>
</svg>
