<svg width="18" height="12" viewBox="0 0 18 12" fill="none" xmlns="http://www.w3.org/2000/svg">
<path d="M9.00127 8.18224C10.3568 8.18224 11.4557 7.08336 11.4557 5.72784C11.4557 4.37231 10.3568 3.27344 9.00127 3.27344C7.64575 3.27344 6.54688 4.37231 6.54688 5.72784C6.54688 7.08336 7.64575 8.18224 9.00127 8.18224Z" fill="#274138"/>
<path d="M9 0C4.0908 0 0 5.3182 0 5.7274C0 6.1362 4.0908 11.4548 9 11.4548C13.909 11.4548 18 6.1366 18 5.7274C18 5.318 13.9092 0 9 0ZM9 9.8182C6.74 9.8182 4.9092 7.987 4.9092 5.7274C4.9092 3.4672 6.74 1.6366 9 1.6366C11.2598 1.6366 13.0908 3.4672 13.0908 5.7274C13.0908 7.987 11.2598 9.8182 9 9.8182Z" fill="#274138"/>
</svg>
