<svg width="34" height="17" viewBox="0 0 34 17" fill="none" xmlns="http://www.w3.org/2000/svg">
<path d="M0 8.47239C0 12.2944 1.45419 15.288 2.60622 16.9449H4.02264C2.75731 14.9114 1.77525 12.0308 1.77525 8.47239C1.77525 4.91399 2.75731 2.01454 4.02264 0H2.60622C1.45419 1.638 0 4.6504 0 8.47239Z" fill="white"/>
<path d="M17.3525 15.1343L21.1296 3.23533V15.1343H23.0559V1.48438H19.8265L16.3326 12.8562L12.8388 1.48438H9.60938V15.1343H11.5357V3.23533L15.3129 15.1343H17.3525Z" fill="white"/>
<path d="M33.0227 8.47239C33.0227 4.6504 31.5685 1.638 30.4165 0H29C30.2465 1.99573 31.2475 4.93281 31.2475 8.47239C31.2475 12.0308 30.2654 14.9114 29 16.9449H30.4165C31.5685 15.288 33.0227 12.2944 33.0227 8.47239Z" fill="white"/>
</svg>
