<svg width="24" height="22" viewBox="0 0 24 22" fill="none" xmlns="http://www.w3.org/2000/svg">
<mask id="path-1-inside-1_351_224" fill="white">
<path d="M0 7.15587C0 12.2618 4.79212 17.269 11.4756 21.7071C11.6171 21.7964 11.8293 21.8857 12 21.8857C12.1718 21.8857 12.3678 21.7964 12.5244 21.7071C19.1927 17.269 24 12.2618 24 7.15587C24 3.06793 21.162 0.117188 17.3585 0.117188C15.1477 0.117188 12.9908 1.4037 12 3.42595C11.0103 1.40483 8.85225 0.117188 6.64148 0.117188C2.83803 0.117188 0 3.06793 0 7.15587ZM0.738828 7.15587C0.738828 3.44534 3.23284 0.856021 6.64034 0.856021C8.95702 0.856021 10.5911 2.27806 11.5697 4.06834C11.703 4.32 11.8259 4.42214 12 4.42214C12.1752 4.42214 12.2796 4.31883 12.4303 4.06834C13.3983 2.28032 15.0441 0.856021 17.3608 0.856021C20.7532 0.856021 23.2611 3.44534 23.2611 7.15587C23.2611 11.9942 18.3104 16.954 12.1567 21.0659C12.101 21.103 12.0488 21.1378 12 21.1378C11.9512 21.1378 11.899 21.103 11.8445 21.0659C5.68957 16.954 0.738828 11.9942 0.738828 7.15587Z"/>
</mask>
<path d="M0 7.15587C0 12.2618 4.79212 17.269 11.4756 21.7071C11.6171 21.7964 11.8293 21.8857 12 21.8857C12.1718 21.8857 12.3678 21.7964 12.5244 21.7071C19.1927 17.269 24 12.2618 24 7.15587C24 3.06793 21.162 0.117188 17.3585 0.117188C15.1477 0.117188 12.9908 1.4037 12 3.42595C11.0103 1.40483 8.85225 0.117188 6.64148 0.117188C2.83803 0.117188 0 3.06793 0 7.15587ZM0.738828 7.15587C0.738828 3.44534 3.23284 0.856021 6.64034 0.856021C8.95702 0.856021 10.5911 2.27806 11.5697 4.06834C11.703 4.32 11.8259 4.42214 12 4.42214C12.1752 4.42214 12.2796 4.31883 12.4303 4.06834C13.3983 2.28032 15.0441 0.856021 17.3608 0.856021C20.7532 0.856021 23.2611 3.44534 23.2611 7.15587C23.2611 11.9942 18.3104 16.954 12.1567 21.0659C12.101 21.103 12.0488 21.1378 12 21.1378C11.9512 21.1378 11.899 21.103 11.8445 21.0659C5.68957 16.954 0.738828 11.9942 0.738828 7.15587Z" fill="#274138"/>
<path d="M11.4756 21.7071L10.9224 22.5402L10.932 22.5466L10.9419 22.5528L11.4756 21.7071ZM12.5244 21.7071L13.0197 22.5759L13.0497 22.5587L13.0785 22.5396L12.5244 21.7071ZM12 3.42595L11.1019 3.86572L11.9997 5.69932L12.898 3.86594L12 3.42595ZM11.5697 4.06834L12.4536 3.60043L12.4472 3.58871L11.5697 4.06834ZM12.4303 4.06834L13.2872 4.58373L13.2989 4.56433L13.3097 4.54443L12.4303 4.06834ZM12.1567 21.0659L12.7113 21.8979L12.7122 21.8974L12.1567 21.0659ZM11.8445 21.0659L12.4071 20.2391L12.4 20.2344L11.8445 21.0659ZM-1 7.15587C-1 10.0298 0.347302 12.7781 2.46267 15.3214C4.58157 17.8689 7.53716 20.2922 10.9224 22.5402L12.0287 20.8741C8.73051 18.6839 5.94833 16.3845 4.00031 14.0424C2.04876 11.6961 1 9.38786 1 7.15587H-1ZM10.9419 22.5528C11.155 22.6873 11.5579 22.8857 12 22.8857V20.8857C12.0219 20.8857 12.0389 20.8871 12.0502 20.8885C12.0617 20.8898 12.0694 20.8913 12.0732 20.8921C12.0771 20.8929 12.0784 20.8934 12.0771 20.893C12.0759 20.8926 12.073 20.8917 12.0686 20.8901C12.0594 20.8868 12.0477 20.8819 12.0353 20.8757C12.0228 20.8696 12.0136 20.8642 12.0092 20.8614L10.9419 22.5528ZM12 22.8857C12.4545 22.8857 12.8494 22.673 13.0197 22.5759L12.0292 20.8384C12.0053 20.852 11.9834 20.8636 11.9636 20.8732C11.9437 20.8829 11.9289 20.8891 11.9194 20.8926C11.9094 20.8963 11.91 20.8954 11.9202 20.8932C11.9299 20.891 11.9577 20.8857 12 20.8857V22.8857ZM13.0785 22.5396C16.4556 20.2919 19.4108 17.8688 21.5314 15.3217C23.6482 12.7791 25 10.0306 25 7.15587H23C23 9.38705 21.9482 11.6951 19.9943 14.0421C18.0441 16.3846 15.2616 18.6842 11.9704 20.8746L13.0785 22.5396ZM25 7.15587C25 2.56566 21.763 -0.882812 17.3585 -0.882812V1.11719C20.561 1.11719 23 3.5702 23 7.15587H25ZM17.3585 -0.882812C14.78 -0.882812 12.2668 0.608614 11.102 2.98597L12.898 3.86594C13.7148 2.19879 15.5155 1.11719 17.3585 1.11719V-0.882812ZM12.8981 2.98619C11.7344 0.609736 9.21994 -0.882812 6.64148 -0.882812V1.11719C8.48456 1.11719 10.2862 2.19993 11.1019 3.86572L12.8981 2.98619ZM6.64148 -0.882812C2.23703 -0.882812 -1 2.56566 -1 7.15587H1C1 3.5702 3.43904 1.11719 6.64148 1.11719V-0.882812ZM1.73883 7.15587C1.73883 3.94303 3.83818 1.85602 6.64034 1.85602V-0.143979C2.62749 -0.143979 -0.261172 2.94766 -0.261172 7.15587H1.73883ZM6.64034 1.85602C8.47653 1.85602 9.82601 2.96322 10.6923 4.54798L12.4472 3.58871C11.3563 1.59289 9.43752 -0.143979 6.64034 -0.143979V1.85602ZM10.6859 4.53622C10.7775 4.70915 10.9157 4.93174 11.1336 5.11132C11.386 5.31931 11.6863 5.42214 12 5.42214V3.42214C12.0567 3.42214 12.1309 3.43088 12.2123 3.45977C12.2941 3.48877 12.3589 3.52948 12.4055 3.5679C12.4851 3.6335 12.4952 3.67919 12.4535 3.60047L10.6859 4.53622ZM12 5.42214C12.3265 5.42214 12.6267 5.3108 12.8741 5.0993C13.072 4.93016 13.2045 4.72123 13.2872 4.58373L11.5733 3.55296C11.5447 3.60047 11.5296 3.62199 11.5244 3.62895C11.5191 3.63604 11.5355 3.61243 11.5745 3.57905C11.6177 3.54219 11.6841 3.49707 11.7732 3.46413C11.8623 3.43116 11.9425 3.42214 12 3.42214V5.42214ZM13.3097 4.54443C14.1633 2.96773 15.5226 1.85602 17.3608 1.85602V-0.143979C14.5656 -0.143979 12.6333 1.59291 11.5509 3.59225L13.3097 4.54443ZM17.3608 1.85602C20.1492 1.85602 22.2611 3.9445 22.2611 7.15587H24.2611C24.2611 2.94618 21.3571 -0.143979 17.3608 -0.143979V1.85602ZM22.2611 7.15587C22.2611 9.23499 21.191 11.4599 19.2549 13.7353C17.3298 15.9979 14.6355 18.2069 11.6011 20.2344L12.7122 21.8974C15.8316 19.813 18.6895 17.4862 20.7782 15.0313C22.856 12.5893 24.2611 9.91509 24.2611 7.15587H22.2611ZM11.602 20.2338C11.5622 20.2604 11.5855 20.2433 11.6209 20.2252C11.6544 20.2081 11.795 20.1378 12 20.1378V22.1378C12.2537 22.1378 12.4449 22.0501 12.5306 22.0063C12.6183 21.9615 12.6955 21.9085 12.7113 21.8979L11.602 20.2338ZM12 20.1378C12.2051 20.1378 12.346 20.2081 12.3813 20.2262C12.4192 20.2457 12.4428 20.2635 12.4071 20.2391L11.2819 21.8926C11.3006 21.9054 11.3776 21.9591 11.4675 22.0053C11.5546 22.05 11.7461 22.1378 12 22.1378V20.1378ZM12.4 20.2344C9.36504 18.2069 6.67043 15.9979 4.74516 13.7353C2.809 11.4598 1.73883 9.23498 1.73883 7.15587H-0.261172C-0.261172 9.9151 1.14402 12.5893 3.22196 15.0314C5.31078 17.4862 8.169 19.8131 11.289 21.8974L12.4 20.2344Z" fill="#274138" mask="url(#path-1-inside-1_351_224)"/>
</svg>
