<svg width="24" height="22" viewBox="0 0 24 22" fill="none" xmlns="http://www.w3.org/2000/svg">
<path d="M11.5509 3.64584L11.9998 4.56264L12.449 3.64595C13.3528 1.80125 15.3316 0.617188 17.3585 0.617188C20.8615 0.617188 23.5 3.31906 23.5 7.15587C23.5 9.54794 22.3732 11.9661 20.3786 14.362C18.3888 16.752 15.5687 19.079 12.2626 21.2808C12.2032 21.314 12.1456 21.3419 12.0936 21.3613C12.0661 21.3715 12.0437 21.378 12.0263 21.3818C12.0178 21.3836 12.0113 21.3846 12.0067 21.3852C12.0047 21.3854 12.0032 21.3855 12.0021 21.3856C12.0006 21.3857 11.9999 21.3857 12 21.3857C12.0003 21.3857 11.9978 21.3857 11.9922 21.3851C11.9867 21.3845 11.9792 21.3833 11.9696 21.3812C11.9499 21.3771 11.9256 21.3702 11.8977 21.36C11.8424 21.3399 11.7879 21.3125 11.7466 21.2869C8.42903 19.0834 5.60553 16.7543 3.6159 14.3622C1.6234 11.9666 0.5 9.54834 0.5 7.15587C0.5 3.31906 3.13854 0.617188 6.64148 0.617188C8.66841 0.617188 10.6483 1.80238 11.5509 3.64584Z" fill="#274138" stroke="#274138"/>
</svg>
