<svg width="154" height="32" viewBox="0 0 154 32" fill="none" xmlns="http://www.w3.org/2000/svg">
<g clip-path="url(#clip0_351_181)">
<path d="M0 15.948C0 23.1424 2.73104 28.7775 4.89461 31.8962H7.55472C5.17835 28.0685 3.334 22.6462 3.334 15.948C3.334 9.24987 5.17835 3.79208 7.55472 0H4.89461C2.73104 3.0833 0 8.7537 0 15.948Z" fill="#274138"/>
<path d="M41.9873 28.4831L49.0808 6.08498V28.4831H52.6985V2.78906H46.6335L40.0719 24.1949L33.5104 2.78906H27.4453V28.4831H31.0631V6.08498L38.1568 28.4831H41.9873Z" fill="#274138"/>
<path d="M62.4068 2.78906H58.7891V28.4831H62.4068V2.78906Z" fill="#274138"/>
<path d="M72.1412 2.78906H68.5234V28.4831H85.7255V25.3644H72.1412V2.78906Z" fill="#274138"/>
<path d="M92.399 2.78906H88.7812V28.4831H92.399V20.4028L96.4423 15.9373L105.274 28.4831H109.601L98.8896 13.2793L108.502 2.78906H103.997L92.399 15.7247V2.78906Z" fill="#274138"/>
<path d="M109.008 2.78906L118.087 18.4536V28.4831H121.705V18.5244L131.14 2.78906H127.167L120.003 15.3348L112.98 2.78906H109.008Z" fill="#274138"/>
<path d="M153.969 15.948C153.969 8.7537 151.238 3.0833 149.074 0H146.414C148.755 3.75666 150.635 9.28529 150.635 15.948C150.635 22.6462 148.791 28.0685 146.414 31.8962H149.074C151.238 28.7775 153.969 23.1424 153.969 15.948Z" fill="#274138"/>
</g>
<defs>
<clipPath id="clip0_351_181">
<rect width="154" height="32" fill="white"/>
</clipPath>
</defs>
</svg>
