<svg width="120" height="25" viewBox="0 0 120 25" fill="none" xmlns="http://www.w3.org/2000/svg">
<g clip-path="url(#clip0_353_787)">
<path d="M0 12.4594C0 18.08 2.12809 22.4824 3.81398 24.9189H5.88679C4.03508 21.9285 2.59792 17.6924 2.59792 12.4594C2.59792 7.22646 4.03508 2.96257 5.88679 0H3.81398C2.12809 2.40883 0 6.83883 0 12.4594Z" fill="white"/>
<path d="M32.7142 22.2532L38.2416 4.75462V22.2532H41.0606V2.17969H36.3346L31.2217 18.903L26.1088 2.17969H21.3828V22.2532H24.2018V4.75462L29.7294 22.2532H32.7142Z" fill="white"/>
<path d="M48.6315 2.17969H45.8125V22.2532H48.6315V2.17969Z" fill="white"/>
<path d="M56.2096 2.17969H53.3906V22.2532H66.7948V19.8166H56.2096V2.17969Z" fill="white"/>
<path d="M71.9987 2.17969H69.1797V22.2532H71.9987V15.9404L75.1493 12.4518L82.0312 22.2532H85.4029L77.0563 10.3752L84.5462 2.17969H81.0363L71.9987 12.2856V2.17969Z" fill="white"/>
<path d="M84.9453 2.17969L92.0203 14.4176V22.2532H94.8393V14.4729L102.191 2.17969H99.0955L93.5128 11.9811L88.0406 2.17969H84.9453Z" fill="white"/>
<path d="M119.981 12.4594C119.981 6.83883 117.853 2.40883 116.167 0H114.094C115.918 2.93489 117.383 7.25413 117.383 12.4594C117.383 17.6924 115.946 21.9285 114.094 24.9189H116.167C117.853 22.4824 119.981 18.08 119.981 12.4594Z" fill="white"/>
</g>
<defs>
<clipPath id="clip0_353_787">
<rect width="120" height="25" fill="white"/>
</clipPath>
</defs>
</svg>
