<svg width="22" height="20" viewBox="0 0 22 20" fill="none" xmlns="http://www.w3.org/2000/svg">
<path d="M12.1196 19.3234C12.4418 19.3234 12.7052 19.1533 12.925 18.9363L21.3742 11.0953C21.9135 10.5835 22 10.2965 22 10.0015C22 9.70555 21.9263 9.41949 21.3742 8.90673L12.925 1.05965C12.7003 0.850727 12.4438 0.679688 12.1215 0.679688C11.6666 0.679688 11.433 1.03336 11.433 1.45975V6.17994H10.9398C4.38346 6.17994 0 9.85279 0 18.5327C0 19.0148 0.284814 19.3234 0.661221 19.3234C0.989537 19.3234 1.20839 19.1629 1.39102 18.7138C2.86094 15.2886 5.85809 13.9255 10.9398 13.9255H11.433V18.5491C11.433 18.9755 11.6666 19.3234 12.1196 19.3234ZM12.2347 18.5974C12.1136 18.5974 12.0457 18.5039 12.0457 18.37V13.5918C12.0457 13.3814 11.973 13.3087 11.7626 13.3087H11.0103C5.62285 13.3087 2.37063 14.834 0.93902 18.4036C0.885852 18.5365 0.833643 18.6528 0.728294 18.6528C0.611099 18.6528 0.570736 18.574 0.570736 18.4667C0.576237 10.4832 4.52229 6.79587 11.0103 6.79587H11.7626C11.973 6.79587 12.0457 6.72315 12.0457 6.51367V1.59968C12.0457 1.47862 12.1264 1.39792 12.2475 1.39792C12.3676 1.39792 12.4483 1.4767 12.5537 1.55644L20.97 9.37901C21.2418 9.65086 21.3453 9.81931 21.3453 10.0015C21.3453 10.1837 21.2674 10.3521 20.97 10.624L12.5409 18.4389C12.3961 18.557 12.3154 18.5974 12.2347 18.5974Z" fill="#274138"/>
</svg>
