<svg width="98" height="19" viewBox="0 0 98 19" fill="none" xmlns="http://www.w3.org/2000/svg">
<path d="M16.8476 6.55001L12.1366 5.86534L10.0307 1.59591C9.97314 1.47901 9.87851 1.38438 9.76161 1.32686C9.46845 1.18214 9.1122 1.30274 8.96562 1.59591L6.85966 5.86534L2.14862 6.55001C2.01874 6.56856 1.89999 6.62979 1.80907 6.72256C1.69916 6.83554 1.63859 6.98753 1.64068 7.14513C1.64276 7.30274 1.70734 7.45307 1.82021 7.56309L5.2287 10.8862L4.42343 15.5787C4.40454 15.6879 4.41662 15.8001 4.4583 15.9028C4.49997 16.0054 4.56957 16.0943 4.6592 16.1594C4.74883 16.2245 4.85491 16.2632 4.96541 16.2711C5.07591 16.279 5.1864 16.2557 5.28437 16.204L9.49814 13.9886L13.7119 16.204C13.8269 16.2652 13.9605 16.2856 14.0886 16.2634C14.4114 16.2077 14.6285 15.9016 14.5728 15.5787L13.7676 10.8862L17.1761 7.56309C17.2688 7.47217 17.3301 7.35342 17.3486 7.22354C17.3987 6.89883 17.1724 6.59825 16.8476 6.55001V6.55001Z" fill="#FFDD00"/>
<path d="M37.0351 6.55001L32.3241 5.86534L30.2182 1.59591C30.1606 1.47901 30.066 1.38438 29.9491 1.32686C29.6559 1.18214 29.2997 1.30274 29.1531 1.59591L27.0472 5.86534L22.3361 6.55001C22.2062 6.56856 22.0875 6.62979 21.9966 6.72256C21.8867 6.83554 21.8261 6.98753 21.8282 7.14513C21.8303 7.30274 21.8948 7.45307 22.0077 7.56309L25.4162 10.8862L24.6109 15.5787C24.592 15.6879 24.6041 15.8001 24.6458 15.9028C24.6875 16.0054 24.7571 16.0943 24.8467 16.1594C24.9363 16.2245 25.0424 16.2632 25.1529 16.2711C25.2634 16.279 25.3739 16.2557 25.4719 16.204L29.6856 13.9886L33.8994 16.204C34.0144 16.2652 34.148 16.2856 34.2761 16.2634C34.5989 16.2077 34.816 15.9016 34.7603 15.5787L33.9551 10.8862L37.3636 7.56309C37.4563 7.47217 37.5176 7.35342 37.5361 7.22354C37.5862 6.89883 37.3599 6.59825 37.0351 6.55001V6.55001Z" fill="#FFDD00"/>
<path d="M56.1706 6.55001L51.7541 5.86534L49.7797 1.59591C49.7258 1.47901 49.6371 1.38438 49.5275 1.32686C49.2526 1.18214 48.9187 1.30274 48.7812 1.59591L46.8069 5.86534L42.3903 6.55001C42.2685 6.56856 42.1572 6.62979 42.072 6.72256C41.9689 6.83554 41.9122 6.98753 41.9141 7.14513C41.9161 7.30274 41.9766 7.45307 42.0824 7.56309L45.2779 10.8862L44.5229 15.5787C44.5052 15.6879 44.5166 15.8001 44.5556 15.9028C44.5947 16.0054 44.6599 16.0943 44.744 16.1594C44.828 16.2245 44.9275 16.2632 45.031 16.2711C45.1346 16.279 45.2382 16.2557 45.3301 16.204L49.2805 13.9886L53.2309 16.204C53.3387 16.2652 53.464 16.2856 53.584 16.2634C53.8867 16.2077 54.0902 15.9016 54.038 15.5787L53.2831 10.8862L56.4785 7.56309C56.5655 7.47217 56.6229 7.35342 56.6403 7.22354C56.6873 6.89883 56.4751 6.59825 56.1706 6.55001V6.55001Z" fill="#FFDD00"/>
<path d="M76.3581 6.55001L71.9416 5.86534L69.9672 1.59591C69.9133 1.47901 69.8246 1.38438 69.715 1.32686C69.4401 1.18214 69.1062 1.30274 68.9687 1.59591L66.9944 5.86534L62.5778 6.55001C62.456 6.56856 62.3447 6.62979 62.2595 6.72256C62.1564 6.83554 62.0997 6.98753 62.1016 7.14513C62.1036 7.30274 62.1641 7.45307 62.2699 7.56309L65.4654 10.8862L64.7104 15.5787C64.6927 15.6879 64.7041 15.8001 64.7431 15.9028C64.7822 16.0054 64.8474 16.0943 64.9315 16.1594C65.0155 16.2245 65.115 16.2632 65.2185 16.2711C65.3221 16.279 65.4257 16.2557 65.5176 16.204L69.468 13.9886L73.4184 16.204C73.5262 16.2652 73.6515 16.2856 73.7715 16.2634C74.0742 16.2077 74.2777 15.9016 74.2255 15.5787L73.4706 10.8862L76.666 7.56309C76.753 7.47217 76.8104 7.35342 76.8278 7.22354C76.8748 6.89883 76.6626 6.59825 76.3581 6.55001V6.55001Z" fill="#FFDD00"/>
<path d="M95.2226 6.55001L90.5116 5.86534L88.4057 1.59591C88.3481 1.47901 88.2535 1.38438 88.1366 1.32686C87.8434 1.18214 87.4872 1.30274 87.3406 1.59591L85.2347 5.86534L80.5236 6.55001C80.3937 6.56856 80.275 6.62979 80.1841 6.72256C80.0742 6.83554 80.0136 6.98753 80.0157 7.14513C80.0178 7.30274 80.0823 7.45307 80.1952 7.56309L83.6037 10.8862L82.7984 15.5787C82.7795 15.6879 82.7916 15.8001 82.8333 15.9028C82.875 16.0054 82.9446 16.0943 83.0342 16.1594C83.1238 16.2245 83.2299 16.2632 83.3404 16.2711C83.4509 16.279 83.5614 16.2557 83.6594 16.204L87.8731 13.9886L92.0869 16.204C92.2019 16.2652 92.3355 16.2856 92.4636 16.2634C92.7864 16.2077 93.0035 15.9016 92.9478 15.5787L92.1426 10.8862L95.5511 7.56309C95.6438 7.47217 95.7051 7.35342 95.7236 7.22354C95.7737 6.89883 95.5474 6.59825 95.2226 6.55001V6.55001Z" fill="#FFDD00"/>
</svg>
