<svg width="24" height="25" viewBox="0 0 24 25" fill="none" xmlns="http://www.w3.org/2000/svg">
<path d="M21.287 8.77657L15.3362 7.91173L12.6761 2.51876C12.6034 2.3711 12.4839 2.25157 12.3362 2.17891C11.9659 1.9961 11.5159 2.14845 11.3307 2.51876L8.67059 7.91173L2.71981 8.77657C2.55574 8.80001 2.40574 8.87735 2.2909 8.99454C2.15206 9.13724 2.07555 9.32923 2.07819 9.52831C2.08083 9.72739 2.16239 9.91728 2.30496 10.0563L6.61043 14.2539L5.59324 20.1813C5.56939 20.3191 5.58465 20.4609 5.63729 20.5906C5.68993 20.7203 5.77784 20.8326 5.89106 20.9148C6.00428 20.997 6.13828 21.0459 6.27785 21.0558C6.41743 21.0658 6.557 21.0364 6.68074 20.9711L12.0034 18.1727L17.3261 20.9711C17.4714 21.0484 17.6401 21.0742 17.8018 21.0461C18.2097 20.9758 18.4839 20.5891 18.4136 20.1813L17.3964 14.2539L21.7018 10.0563C21.819 9.94141 21.8964 9.79141 21.9198 9.62735C21.9831 9.2172 21.6972 8.83751 21.287 8.77657V8.77657Z" fill="#FFDD00"/>
</svg>
