<svg width="98" height="43" viewBox="0 0 98 43" fill="none" xmlns="http://www.w3.org/2000/svg">
<path d="M13.0229 11.7051C13.0395 11.8535 13.0361 11.9666 13.0126 12.0443C12.9879 12.1115 12.9019 12.1587 12.7547 12.1859C12.6817 12.2048 12.6127 12.1159 12.5478 11.9192L12.4185 11.4829C12.2651 11.0707 12.0917 10.8647 11.8986 10.8648C11.6654 10.8909 11.374 11.1167 11.0244 11.5422C10.7031 11.9323 10.4049 12.3843 10.1296 12.8981C10.032 13.0807 9.9208 13.2863 9.7961 13.515C9.68201 13.7424 9.56439 13.9863 9.44325 14.2467L9.00043 15.1817C8.76987 15.6154 8.57404 16.0237 8.41294 16.4066C8.25184 16.7896 8.12017 17.1477 8.01793 17.4812C8.20867 17.3632 8.41294 17.2223 8.63074 17.0584L8.99803 16.7437C9.10634 16.6564 9.19934 16.5763 9.27703 16.5032C9.35353 16.4195 9.42533 16.3417 9.49242 16.2698C9.57953 16.1849 9.70663 16.0258 9.87373 15.7924L10.5018 14.4986C10.7441 13.9778 10.9352 13.6237 11.0753 13.4363C11.2247 13.2371 11.3372 13.1387 11.4125 13.141C11.5504 13.1256 11.6894 13.169 11.8296 13.2714C11.9699 13.3738 12.0495 13.5098 12.0685 13.6794C12.0922 13.8914 12.004 14.1589 11.804 14.4818L11.4316 15.0386C11.3575 15.1435 11.2745 15.2655 11.1827 15.4045C11.0898 15.533 10.9774 15.6797 10.8456 15.8447L10.2506 16.5714L9.53626 18.2452C9.41986 18.548 9.30817 18.8449 9.20119 19.1359C9.10362 19.4152 9.01136 19.6938 8.92439 19.9719L8.3392 21.9371C8.33097 21.9595 8.31277 22.0366 8.2846 22.1686C8.26702 22.2993 8.24477 22.4843 8.21785 22.7234C8.16506 23.0191 8.08625 23.1782 7.98143 23.2007C7.8672 23.2349 7.75704 23.2097 7.65097 23.1249C7.54489 23.0402 7.48415 22.9289 7.46874 22.7911C7.45332 22.6533 7.48317 22.3924 7.55828 22.0083C7.6064 21.7668 7.77556 21.12 8.06574 20.0679L8.49946 18.7636L8.89625 17.7049C8.8044 17.7474 8.68019 17.8364 8.52362 17.972C8.36706 18.1076 8.21579 18.2426 8.06982 18.377L7.21159 19.0525L6.68771 20.2703C6.41607 20.9125 6.20496 21.3762 6.05439 21.6613C5.67333 22.4767 5.30744 23.0919 4.95671 23.5068C4.52363 24.0489 4.06857 24.3467 3.59154 24.4001C3.07212 24.4581 2.55604 24.2583 2.0433 23.8004C1.61426 23.4191 1.3967 23.1053 1.39063 22.8591C1.35388 22.5305 1.70694 22.0885 2.44981 21.5332C2.57814 21.433 2.73708 21.3186 2.92663 21.1901C3.12679 21.0603 3.35696 20.9112 3.61717 20.7425L5.37086 19.5804C5.83003 19.2715 6.26445 18.9331 6.6741 18.5653L8.20183 15.2388C8.33825 14.9231 8.45408 14.6632 8.54935 14.4594C8.64462 14.2555 8.71341 14.1029 8.75575 14.0016C8.93449 13.5845 9.18622 13.1002 9.51093 12.5487C9.68152 12.2505 9.85977 11.973 10.0457 11.7161C10.241 11.4474 10.4435 11.194 10.653 10.9559C11.1002 10.4443 11.4775 10.1713 11.785 10.137C11.997 10.1133 12.199 10.1926 12.3912 10.3751C12.548 10.5293 12.6912 10.7547 12.821 11.0515C12.9048 11.2246 12.9626 11.3576 12.9945 11.4507C13.0263 11.5437 13.0358 11.6285 13.0229 11.7051ZM6.06548 19.8891C6.02545 19.9151 5.93597 19.9787 5.79705 20.0801C5.65694 20.1709 5.4715 20.2883 5.24073 20.4322C5.00996 20.576 4.79509 20.7181 4.59612 20.8584C4.40656 20.987 4.24232 21.1019 4.1034 21.2033C3.90443 21.3437 3.70605 21.4893 3.50827 21.6402C3.32108 21.7899 3.12801 21.935 2.92904 22.0753C2.50523 22.4125 2.29984 22.6394 2.31288 22.756C2.33896 22.9892 2.49048 23.1923 2.76742 23.3652C3.05733 23.5582 3.31359 23.6422 3.5362 23.6174C3.87542 23.5794 4.26447 23.2193 4.70335 22.5369C4.77629 22.4214 4.86689 22.2718 4.97512 22.0879C5.08336 21.9041 5.20865 21.6808 5.35099 21.418C5.70039 20.7993 5.93855 20.2897 6.06548 19.8891ZM19.9755 19.3637C19.9556 19.4733 19.792 19.6419 19.4847 19.8694C19.2575 20.0451 18.9561 20.2291 18.5804 20.4214C18.4792 20.4756 18.3573 20.5376 18.2148 20.6072C18.0723 20.6768 17.9034 20.7493 17.7079 20.8249L16.664 21.2797C16.233 21.4567 15.8573 21.6007 15.537 21.7116C15.2273 21.8214 14.9558 21.8893 14.7226 21.9154C14.6272 21.9261 14.5188 21.9168 14.3975 21.8874C14.2867 21.8568 14.1801 21.8151 14.0776 21.7622C13.9845 21.6975 13.9008 21.6209 13.8265 21.5327C13.7628 21.4432 13.7257 21.3507 13.715 21.2553C13.6949 21.1717 13.6807 21.0928 13.6724 21.0186C13.6747 20.9432 13.677 20.8678 13.6793 20.7924C13.6887 20.6841 13.6998 20.5916 13.7127 20.515C13.7256 20.4384 13.7344 20.373 13.739 20.3189L13.0854 20.5208L12.1845 20.8147L11.4081 22.2217C11.3363 22.3478 11.2217 22.6182 11.0641 23.033C10.9466 23.3252 10.8507 23.4755 10.7765 23.4838C10.6387 23.4992 10.5073 23.4763 10.3824 23.4151C10.2469 23.3552 10.1732 23.2722 10.1614 23.1662C10.1554 23.1132 10.2224 22.9447 10.3624 22.6607L11.0628 21.1495C10.9331 21.0459 10.8052 20.9099 10.6791 20.7416C10.5635 20.5721 10.4974 20.4131 10.4808 20.2647C10.4642 20.1163 10.5077 19.9772 10.6113 19.8476C10.7148 19.7179 10.8355 19.6454 10.9733 19.63C11.0793 19.6181 11.2443 19.6534 11.4681 19.7357C11.5365 19.7709 11.5878 19.7974 11.6219 19.8151C11.6655 19.8209 11.6985 19.828 11.7209 19.8362C11.8514 19.564 12.0067 19.2729 12.1867 18.963C12.3773 18.6519 12.5938 18.3325 12.8362 18.0049C13.347 17.293 13.6841 16.8528 13.8477 16.6843C14.0372 16.4591 14.185 16.3406 14.291 16.3288C14.6196 16.292 14.7728 16.4144 14.7506 16.696C14.7389 16.7831 14.5683 17.033 14.2388 17.4455C14.1352 17.5752 14.0411 17.693 13.9563 17.7991C13.8822 17.904 13.8128 18.003 13.748 18.0961C13.628 18.2705 13.5039 18.4561 13.3756 18.6529C13.2462 18.8391 13.1179 19.0359 12.9909 19.2434C12.8909 19.4048 12.8044 19.5433 12.7314 19.6588C12.6679 19.7625 12.6126 19.8438 12.5655 19.9027C12.6609 19.892 12.7604 19.8702 12.8641 19.8371C12.9665 19.7935 13.0543 19.7622 13.1273 19.7433L13.5442 19.584C13.6054 19.5556 13.6666 19.5273 13.7278 19.499C13.7879 19.4601 13.842 19.4165 13.8903 19.3682L14.6265 18.4647C14.8536 18.1925 15.1237 17.9208 15.4369 17.6496C15.6605 17.4421 15.876 17.257 16.0832 17.0943C16.2904 16.9316 16.4781 16.7872 16.6465 16.661C17.2434 16.2401 17.738 16.0077 18.1302 15.9638C18.4164 15.9318 18.6379 15.9929 18.7947 16.1471C18.9279 16.2824 19.004 16.4349 19.0229 16.6045C19.0846 17.1558 18.8778 17.8497 18.4025 18.6864C18.2237 19.0069 18.0307 19.2968 17.8236 19.5561C17.627 19.8142 17.4223 20.0464 17.2092 20.2527C17.334 20.2173 17.4483 20.1831 17.5519 20.15C17.665 20.1052 17.7727 20.0609 17.8751 20.0173L18.345 19.7554L19.1981 19.3219C19.5124 19.1579 19.7014 19.0724 19.765 19.0653C19.9347 19.0463 20.0048 19.1458 19.9755 19.3637ZM18.267 17.0433C18.2445 16.8419 18.1702 16.7536 18.0442 16.7784C17.7898 16.8068 17.5119 16.9131 17.2104 17.097C17.0303 17.2138 16.8667 17.3341 16.7195 17.4578C16.5712 17.571 16.4617 17.696 16.3911 17.8327C16.4642 17.9104 16.5043 17.981 16.5114 18.0446C16.5186 18.1082 16.5033 18.1636 16.4656 18.2107C16.4021 18.3144 16.2238 18.4954 15.9306 18.7536L15.2579 19.3601C15.2096 19.4084 15.1561 19.4573 15.0972 19.5069C15.0383 19.5564 14.9695 19.6124 14.8906 19.6749C14.7799 19.7409 14.7016 19.8087 14.6557 19.8782C14.6193 19.936 14.594 19.9978 14.5799 20.0638C14.5658 20.1298 14.5582 20.2058 14.5571 20.2918C14.5654 20.366 14.559 20.4525 14.5379 20.5515C14.5285 20.6599 14.5557 20.7588 14.6193 20.8483C14.6936 20.9366 14.7891 20.9742 14.9057 20.9612C15.1813 20.9303 15.5157 20.7534 15.9089 20.4304C16.3115 20.0955 16.7246 19.6629 17.1483 19.1326C17.3272 18.9086 17.4819 18.7089 17.6126 18.5332C17.7432 18.3576 17.8497 18.2062 17.9321 18.0789C18.1874 17.6747 18.299 17.3295 18.267 17.0433ZM26.6451 12.4999C26.6593 12.6271 26.647 12.7573 26.6082 12.8904C26.5683 13.0129 26.5118 13.1319 26.4389 13.2474C26.3753 13.3511 26.2941 13.4407 26.1952 13.5162C26.1058 13.5799 26.0133 13.617 25.9179 13.6277C25.8225 13.6384 25.7305 13.536 25.642 13.3205C25.6267 13.2792 25.6414 13.2186 25.6861 13.1384C25.8355 12.9393 25.9055 12.7973 25.896 12.7125C25.8771 12.5429 25.725 12.4311 25.4399 12.3771C25.1772 12.3313 24.924 12.3221 24.6801 12.3494C24.3515 12.3861 23.9705 12.4824 23.5372 12.6382C23.1132 12.7822 22.7135 12.9986 22.3379 13.2875C22.0306 13.5151 21.7876 13.7891 21.6088 14.1097C21.4288 14.4196 21.3566 14.7336 21.3921 15.0516C21.4206 15.306 21.5468 15.5709 21.7708 15.8464C21.8321 15.9147 21.9241 16.0171 22.0467 16.1536C22.1693 16.2902 22.3325 16.4544 22.5365 16.6463C22.6567 16.7616 22.7545 16.8687 22.83 16.9676C22.9161 17.0653 22.9868 17.1701 23.0423 17.282C23.0965 17.3832 23.1361 17.4969 23.1609 17.6229C23.1951 17.7371 23.2211 17.8738 23.2389 18.0328C23.2769 18.372 23.1958 18.703 22.9958 19.0259C22.8229 19.3029 22.5268 19.6312 22.1078 20.0108C21.6887 20.3904 21.2737 20.7105 20.8628 20.9711C20.4507 21.2211 20.0857 21.3639 19.7676 21.3995C19.6086 21.4173 19.4625 21.3585 19.3293 21.2231C19.1949 21.0771 19.1206 20.9405 19.1064 20.8133C19.0791 20.5695 19.1225 20.2856 19.2365 19.9616C19.3505 19.6376 19.5146 19.2811 19.7287 18.8923C19.8275 18.7202 19.9452 18.5246 20.0817 18.3054C20.2182 18.0862 20.3558 17.8776 20.4947 17.6796C20.4157 17.5489 20.3796 17.4188 20.3866 17.2892C20.3901 17.2244 20.4736 17.1077 20.6373 16.9392C20.8115 16.7694 20.9957 16.5932 21.1899 16.4105C21.0602 16.2103 20.9446 15.9925 20.8431 15.757C20.7405 15.5108 20.6773 15.2818 20.6536 15.0698C20.5409 14.0627 21.0586 13.2213 22.2066 12.5455C23.0214 12.0573 23.8952 11.761 24.8281 11.6566C25.3051 11.6033 25.718 11.6483 26.0668 11.7918C26.4144 11.9246 26.6071 12.1607 26.6451 12.4999ZM22.5393 18.111C22.5144 17.8884 22.4748 17.7265 22.4206 17.6252C22.3651 17.5133 22.2767 17.3944 22.1553 17.2685C21.981 17.3416 21.7491 17.5232 21.4595 17.8132C21.3924 17.8851 21.3112 17.9747 21.2159 18.0819C21.1205 18.1892 21.0064 18.32 20.8734 18.4744C20.6262 18.7597 20.3932 19.1238 20.1745 19.5669C19.9533 19.9888 19.8516 20.2792 19.8694 20.4382L20.0144 20.583C20.1852 20.5746 20.4555 20.4478 20.8251 20.2025C21.1148 20.0091 21.4003 19.7786 21.6816 19.511C21.9629 19.2434 22.1724 19.0053 22.3101 18.7967C22.4854 18.541 22.5618 18.3124 22.5393 18.111ZM33.906 17.693C33.9143 17.7672 33.663 17.9671 33.152 18.2925L31.7532 19.1735C31.5319 19.3056 31.3152 19.4317 31.1033 19.5521C30.8913 19.6724 30.6735 19.7879 30.4498 19.8988C30.0235 20.1182 29.715 20.2386 29.5242 20.26C29.2062 20.2955 28.9128 20.2639 28.6442 20.1652C28.3756 20.0664 28.2317 19.9322 28.2128 19.7626L28.1772 19.4446C28.1372 19.4706 28.0665 19.5107 27.9653 19.5649C27.8746 19.618 27.7533 19.6852 27.6014 19.7666L27.0539 20.0532C26.7595 20.2042 26.4528 20.3405 26.1336 20.4621C25.8239 20.5718 25.4995 20.6457 25.1602 20.6836C24.715 20.7334 24.3775 20.6907 24.1477 20.5554C23.9285 20.4189 23.8029 20.2076 23.7709 19.9213C23.7756 19.8672 23.7743 19.8083 23.7672 19.7447C23.7776 19.3571 24.0399 18.8716 24.5542 18.2882C25.0792 17.7035 25.45 17.4205 25.6668 17.4392C25.9495 17.472 26.1039 17.605 26.13 17.8382C26.1454 17.976 26.0778 18.1875 25.9272 18.4727C25.7578 18.7814 25.4842 19.1662 25.1065 19.6271C25.1289 19.6353 25.1666 19.6847 25.2197 19.7754C25.2821 19.8543 25.3399 19.8908 25.3929 19.8848C25.6049 19.8611 25.8646 19.7838 26.1719 19.6528L26.9685 19.29C27.2347 19.1744 27.4878 19.0387 27.728 18.8831C27.9788 18.7262 28.2178 18.56 28.445 18.3843C28.5709 18.1663 28.6885 17.9707 28.798 17.7974C28.9168 17.6124 29.0268 17.4445 29.128 17.2936C29.3104 17.0049 29.4845 16.7385 29.6504 16.4946C29.8164 16.2506 29.9782 16.0179 30.1358 15.7963C30.3053 15.5842 30.476 15.3826 30.6478 15.1917C30.8302 14.9995 31.0045 14.8298 31.1704 14.6824C31.347 14.5339 31.5113 14.4189 31.6632 14.3375C31.8139 14.2455 31.9475 14.193 32.0641 14.18C32.1807 14.1669 32.265 14.2004 32.3169 14.2805C32.3794 14.3594 32.4177 14.4624 32.4319 14.5896C32.4426 14.685 32.4185 14.8058 32.3598 14.9519C32.3116 15.0968 32.2387 15.2606 32.141 15.4432C32.0434 15.6259 31.9257 15.8215 31.7881 16.0301C31.6492 16.2281 31.4992 16.422 31.3379 16.6118C30.9802 17.0596 30.6076 17.4716 30.2204 17.8476C29.7978 18.292 29.4652 18.5814 29.2227 18.7159C29.1368 18.908 29.1064 19.1153 29.1313 19.3379C29.1431 19.4439 29.2127 19.4898 29.3399 19.4756C29.5201 19.4554 29.8092 19.3533 30.2072 19.1693C30.2896 19.1386 30.4221 19.0755 30.6046 18.9799C30.7977 18.8832 31.0415 18.7593 31.3358 18.6084C31.4889 18.5376 31.7009 18.4173 31.9717 18.2474C32.2413 18.067 32.5709 17.8477 32.9606 17.5894C33.2703 17.3831 33.441 17.2781 33.4728 17.2746C33.7272 17.2461 33.8716 17.3856 33.906 17.693ZM42.2274 16.875C42.2075 16.9846 42.0439 17.1531 41.7366 17.3807C41.5094 17.5564 41.2079 17.7403 40.8323 17.9326C40.7311 17.9869 40.6092 18.0488 40.4667 18.1184C40.3242 18.188 40.1552 18.2606 39.9598 18.3361L38.9158 18.791C38.4849 18.968 38.1092 19.1119 37.7889 19.2229C37.4792 19.3327 37.2077 19.4006 36.9745 19.4267C36.8791 19.4374 36.7707 19.428 36.6493 19.3986C36.5386 19.3681 36.432 19.3264 36.3294 19.2734C36.2363 19.2087 36.1527 19.1322 36.0784 19.0439C36.0147 18.9544 35.9775 18.862 35.9669 18.7666C35.9468 18.683 35.9326 18.6041 35.9243 18.5299C35.9266 18.4545 35.9289 18.3791 35.9312 18.3037C35.9405 18.1953 35.9517 18.1028 35.9646 18.0263C35.9775 17.9497 35.9863 17.8843 35.9909 17.8301L35.3373 18.032L34.4364 18.326L33.66 19.733C33.5882 19.8591 33.4736 20.1295 33.316 20.5443C33.1984 20.8365 33.1026 20.9867 33.0283 20.995C32.8905 21.0104 32.7592 20.9876 32.6343 20.9264C32.4988 20.8664 32.4251 20.7834 32.4132 20.6774C32.4073 20.6244 32.4743 20.4559 32.6143 20.1719L33.3147 18.6607C33.185 18.5572 33.0571 18.4212 32.931 18.2529C32.8154 18.0833 32.7493 17.9243 32.7327 17.7759C32.7161 17.6275 32.7596 17.4885 32.8632 17.3588C32.9667 17.2292 33.0874 17.1567 33.2252 17.1413C33.3312 17.1294 33.4962 17.1646 33.72 17.2469C33.7884 17.2822 33.8396 17.3087 33.8738 17.3263C33.9174 17.3322 33.9504 17.3392 33.9728 17.3474C34.1033 17.0752 34.2586 16.7842 34.4386 16.4743C34.6292 16.1631 34.8457 15.8438 35.0881 15.5161C35.5988 14.8043 35.936 14.3641 36.0996 14.1955C36.2891 13.9704 36.4368 13.8519 36.5428 13.84C36.8715 13.8033 37.0247 13.9257 37.0025 14.2072C36.9908 14.2944 36.8202 14.5442 36.4906 14.9568C36.3871 15.0864 36.2929 15.2043 36.2082 15.3104C36.1341 15.4152 36.0646 15.5142 35.9999 15.6073C35.8799 15.7818 35.7558 15.9674 35.6275 16.1642C35.4981 16.3504 35.3698 16.5472 35.2427 16.7546C35.1427 16.9161 35.0563 17.0545 34.9833 17.17C34.9198 17.2737 34.8645 17.355 34.8174 17.414C34.9128 17.4033 35.0123 17.3814 35.116 17.3484C35.2184 17.3047 35.3061 17.2734 35.3792 17.2545L35.796 17.0952C35.8573 17.0669 35.9185 17.0386 35.9797 17.0103C36.0398 16.9714 36.0939 16.9277 36.1422 16.8794L36.8783 15.976C37.1055 15.7037 37.3756 15.432 37.6888 15.1609C37.9124 14.9534 38.1278 14.7683 38.335 14.6056C38.5422 14.4429 38.73 14.2984 38.8984 14.1723C39.4953 13.7513 39.9898 13.5189 40.3821 13.475C40.6683 13.443 40.8898 13.5041 41.0466 13.6583C41.1798 13.7937 41.2558 13.9462 41.2748 14.1158C41.3365 14.667 41.1297 15.361 40.6544 16.1977C40.4756 16.5182 40.2826 16.8081 40.0755 17.0674C39.8789 17.3255 39.6741 17.5577 39.4611 17.764C39.5859 17.7286 39.7001 17.6943 39.8038 17.6613C39.9168 17.6164 40.0246 17.5722 40.127 17.5285L40.5968 17.2667L41.4499 16.8332C41.7643 16.6692 41.9533 16.5837 42.0169 16.5766C42.1865 16.5576 42.2567 16.6571 42.2274 16.875ZM40.5189 14.5545C40.4964 14.3531 40.4221 14.2648 40.2961 14.2897C40.0417 14.3181 39.7637 14.4243 39.4623 14.6083C39.2822 14.725 39.1185 14.8453 38.9714 14.9691C38.8231 15.0823 38.7136 15.2072 38.643 15.3439C38.7161 15.4216 38.7562 15.4923 38.7633 15.5559C38.7704 15.6195 38.7552 15.6748 38.7175 15.722C38.654 15.8257 38.4756 16.0066 38.1825 16.2648L37.5098 16.8714C37.4615 16.9197 37.4079 16.9686 37.3491 17.0181C37.2902 17.0676 37.2214 17.1236 37.1425 17.1861C37.0318 17.2522 36.9535 17.32 36.9076 17.3895C36.8712 17.4472 36.8459 17.5091 36.8318 17.5751C36.8177 17.641 36.8101 17.717 36.809 17.803C36.8173 17.8772 36.8109 17.9638 36.7897 18.0628C36.7804 18.1711 36.8076 18.2701 36.8712 18.3595C36.9455 18.4478 37.0409 18.4855 37.1575 18.4724C37.4332 18.4416 37.7676 18.2647 38.1608 17.9416C38.5634 17.6068 38.9765 17.1742 39.4002 16.6438C39.5791 16.4199 39.7338 16.2201 39.8645 16.0445C39.9951 15.8689 40.1016 15.7175 40.1839 15.5902C40.4393 15.186 40.5509 14.8407 40.5189 14.5545ZM26.9603 31.1484C26.9734 31.265 26.8386 31.4035 26.556 31.5639L25.4062 32.2238C25.1154 32.4066 24.7587 32.6719 24.336 33.0197C24.0594 33.2331 23.8322 33.4088 23.6544 33.5467C23.4766 33.6847 23.3483 33.7849 23.2694 33.8474C22.9682 34.2245 22.6169 34.6824 22.2156 35.221C22.0214 35.5003 21.8508 35.7502 21.7037 35.9706C21.5672 36.1898 21.449 36.3801 21.349 36.5415C21.1031 36.934 20.8548 37.3535 20.6043 37.8001C20.336 38.1843 20.1064 38.3871 19.9156 38.4084C19.7224 38.4086 19.561 38.3568 19.4314 38.2533C19.3029 38.1603 19.2286 38.0237 19.2084 37.8435C19.199 37.7587 19.2242 37.6486 19.2842 37.5131C19.3336 37.3787 19.4082 37.2308 19.5083 37.0694C19.5988 36.9197 19.7042 36.7577 19.8242 36.5833C19.9454 36.4194 20.0731 36.2656 20.2073 36.1218L21.835 34.2654C21.9621 34.058 22.0697 33.8689 22.1579 33.698C22.2568 33.5259 22.3256 33.3733 22.3643 33.2402C21.9359 33.6316 21.499 33.8522 21.0538 33.902C20.757 33.9352 20.5078 33.8665 20.3062 33.6958C20.1047 33.5251 19.9909 33.3232 19.9648 33.09C19.9351 32.825 20.0056 32.4951 20.1761 32.1004C20.2361 31.9649 20.3414 31.8028 20.492 31.6142L20.8468 31.1882C20.9892 30.9254 21.1333 30.6785 21.2792 30.4475C21.4357 30.2154 21.6422 29.9508 21.8988 29.6537C22.0412 29.4875 22.2425 29.3201 22.5027 29.1515C22.7617 28.9723 23.0102 28.8425 23.2481 28.7622C23.3846 28.6396 23.5024 28.5406 23.6012 28.4651C23.7107 28.3885 23.7902 28.3313 23.8397 28.2936C24.1081 28.1026 24.3324 27.997 24.5126 27.9768C24.714 27.9543 24.8849 28.0425 25.0252 28.2415C25.1761 28.4393 25.2682 28.6866 25.3014 28.9834C25.3334 29.2696 25.2683 29.5989 25.106 29.9712C24.9425 30.333 24.7125 30.7236 24.416 31.1432C23.977 31.7289 23.6263 32.1438 23.3638 32.3878C23.3792 32.5256 23.4134 32.6399 23.4665 32.7305L25.1443 31.6091C25.4657 31.4122 25.7636 31.2447 26.038 31.1067C26.3217 30.9569 26.5219 30.8754 26.6385 30.8624C26.8293 30.8411 26.9366 30.9364 26.9603 31.1484ZM24.5381 29.0687C24.5322 29.0157 24.5051 28.9651 24.4568 28.9168C24.4178 28.8568 24.3778 28.8344 24.3366 28.8498C24.2953 28.8651 24.23 28.9046 24.1405 28.9683C24.0605 29.0202 23.9574 29.1069 23.8315 29.2283C23.7538 29.3014 23.6755 29.3692 23.5966 29.4316C23.5284 29.4929 23.4548 29.5548 23.3759 29.6173L23.3443 29.9107C23.3161 29.946 23.156 30.0981 22.8641 30.3669C22.6404 30.5743 22.4839 30.7582 22.3945 30.9185C22.1886 31.285 22.0734 31.5984 22.0488 31.8587C22.0501 31.9659 22.0772 32.0648 22.1303 32.1555C22.1834 32.2462 22.2506 32.3191 22.3319 32.3745C22.4014 32.3238 22.4749 32.2619 22.5526 32.1888C22.6397 32.1039 22.7363 32.0072 22.8422 31.8988C22.9469 31.7797 23.0699 31.6318 23.2112 31.455C23.363 31.277 23.5372 31.059 23.7337 30.8009C23.942 30.5522 24.1291 30.2576 24.2949 29.917C24.4808 29.5635 24.5619 29.2808 24.5381 29.0687ZM21.8622 32.7812C21.8139 32.7329 21.7473 32.6652 21.6624 32.5781C21.5869 32.4792 21.5427 32.4198 21.5297 32.3998C21.4012 32.2102 21.3281 32.0359 21.3103 31.8769L20.8548 32.4109C20.8031 32.524 20.7725 32.6347 20.7632 32.7431C20.7644 32.8503 20.7739 32.9351 20.7916 32.9975C20.8188 33.1447 20.8919 33.2224 21.0109 33.2306C21.0545 33.2364 21.1128 33.2299 21.1858 33.211C21.2682 33.1803 21.3501 33.1444 21.4313 33.1031C21.5126 33.0618 21.5932 33.0152 21.6733 32.9633C21.7522 32.9008 21.8151 32.8401 21.8622 32.7812ZM31.2962 31.0499C31.3104 31.1771 31.0733 31.4558 30.5848 31.8861C30.3399 32.096 30.1039 32.2887 29.8767 32.4644C29.6494 32.6401 29.4358 32.7928 29.2356 32.9225C28.8447 33.1701 28.5203 33.3406 28.2624 33.4338C28.0375 33.5341 27.7395 33.605 27.3685 33.6465C26.9551 33.6927 26.6311 33.5787 26.3965 33.3044C26.222 33.0878 26.1193 32.8417 26.0885 32.5661C26.0482 32.2057 26.0838 31.8046 26.1954 31.3628C26.3164 30.9092 26.5428 30.3901 26.8745 29.8056C27.1345 29.3472 27.4682 28.9235 27.8754 28.5345C28.3604 28.0724 28.8096 27.8182 29.223 27.772C29.3502 27.7577 29.4728 27.7977 29.5906 27.8919C29.7085 27.986 29.7757 28.1073 29.7923 28.2557C29.8386 28.6691 29.7341 29.1262 29.4788 29.627C29.3282 29.9122 29.0847 30.2775 28.7481 30.7231C28.6163 30.8881 28.4486 31.0678 28.2449 31.2623C28.0519 31.4556 27.8176 31.6643 27.5422 31.8883L26.8764 32.4136C26.8906 32.5408 26.9467 32.6579 27.0445 32.7651C27.1424 32.8722 27.2443 32.9198 27.3503 32.908C27.6365 32.8759 27.9474 32.7768 28.283 32.6104C28.4349 32.5291 28.6421 32.4146 28.9047 32.2672C29.1661 32.1092 29.504 31.8675 29.9184 31.542C30.6389 30.9785 31.0097 30.6955 31.0309 30.6931C31.1028 30.6636 31.1652 30.6942 31.2183 30.7849C31.2702 30.8649 31.2962 30.9533 31.2962 31.0499ZM29.1354 28.7156C29.1341 28.6084 29.0858 28.5601 28.9904 28.5708C28.8632 28.585 28.6748 28.7241 28.4253 28.9882C28.1746 29.2416 27.9468 29.5086 27.7421 29.7891C27.5479 30.0684 27.3767 30.3612 27.2285 30.6676C27.2109 30.7018 27.1721 30.7866 27.1121 30.9221C27.0615 31.0458 26.9898 31.2202 26.8969 31.4453C27.1124 31.3568 27.3273 31.2147 27.5415 31.019C27.7652 30.8115 27.9853 30.5722 28.2018 30.3012C28.316 30.1703 28.4237 30.0295 28.5249 29.8786C28.6355 29.716 28.7402 29.5487 28.839 29.3766C29.0284 29.0549 29.1272 28.8345 29.1354 28.7156ZM40.4132 30.0463C40.4215 30.1205 40.1701 30.3203 39.6591 30.6458L38.2604 31.5267C38.039 31.6588 37.8224 31.785 37.6104 31.9053C37.3985 32.0256 37.1807 32.1412 36.9569 32.2521C36.5307 32.4715 36.2221 32.5919 36.0313 32.6132C35.7133 32.6488 35.42 32.6172 35.1513 32.5185C34.8827 32.4197 34.7389 32.2855 34.7199 32.1159L34.6844 31.7979C34.6443 31.8238 34.5737 31.8639 34.4724 31.9182C34.3818 31.9713 34.2605 32.0385 34.1086 32.1199L33.5611 32.4065C33.2667 32.5575 32.9599 32.6938 32.6408 32.8153C32.3311 32.9251 32.0066 32.999 31.6674 33.0369C31.2222 33.0867 30.8847 33.044 30.6549 32.9087C30.4357 32.7722 30.3101 32.5608 30.278 32.2746C30.2827 32.2204 30.2815 32.1615 30.2744 32.0979C30.2847 31.7104 30.547 31.2249 31.0614 30.6414C31.5863 30.0568 31.9572 29.7738 32.1739 29.7925C32.4566 29.8253 32.611 29.9583 32.6371 30.1915C32.6525 30.3293 32.585 30.5408 32.4344 30.826C32.265 31.1347 31.9914 31.5195 31.6136 31.9803C31.636 31.9886 31.6737 32.038 31.7268 32.1287C31.7893 32.2076 31.847 32.244 31.9 32.2381C32.1121 32.2144 32.3717 32.137 32.6791 32.0061L33.4757 31.6433C33.7418 31.5276 33.995 31.392 34.2352 31.2363C34.4859 31.0795 34.7249 30.9132 34.9522 30.7376C35.078 30.5195 35.1957 30.3239 35.3051 30.1507C35.424 29.9657 35.534 29.7977 35.6352 29.6469C35.8175 29.3582 35.9917 29.0918 36.1576 28.8479C36.3235 28.6039 36.4853 28.3711 36.643 28.1496C36.8125 27.9374 36.9831 27.7359 37.155 27.5449C37.3374 27.3528 37.5116 27.183 37.6776 27.0357C37.8542 26.8871 38.0184 26.7722 38.1703 26.6908C38.321 26.5988 38.4547 26.5463 38.5713 26.5332C38.6879 26.5202 38.7721 26.5537 38.824 26.6338C38.8865 26.7126 38.9249 26.8157 38.9391 26.9429C38.9498 27.0383 38.9257 27.1591 38.8669 27.3052C38.8187 27.4501 38.7458 27.6139 38.6482 27.7965C38.5505 27.9792 38.4329 28.1748 38.2952 28.3834C38.1564 28.5814 38.0063 28.7753 37.8451 28.965C37.4873 29.4129 37.1148 29.8249 36.7275 30.2009C36.305 30.6453 35.9724 30.9347 35.7298 31.0692C35.644 31.2612 35.6135 31.4686 35.6384 31.6912C35.6503 31.7972 35.7198 31.8431 35.847 31.8289C36.0272 31.8087 36.3163 31.7066 36.7143 31.5226C36.7968 31.4919 36.9292 31.4287 37.1118 31.3332C37.3049 31.2365 37.5486 31.1126 37.843 30.9616C37.9961 30.8908 38.208 30.7705 38.4788 30.6007C38.7484 30.4203 39.0781 30.201 39.4678 29.9427C39.7774 29.7363 39.9482 29.6314 39.98 29.6278C40.2344 29.5994 40.3788 29.7389 40.4132 30.0463ZM47.2717 29.3919C47.2823 29.4873 47.0528 29.7384 46.5831 30.1451C46.1016 30.5424 45.6637 30.849 45.2692 31.0648C44.956 31.2394 44.6404 31.3928 44.3225 31.5249C44.0034 31.6465 43.7325 31.7197 43.5099 31.7446C43.2555 31.7731 43.0098 31.7361 42.773 31.6338C42.5468 31.5303 42.3423 31.3815 42.1596 31.1872L41.2272 31.9194C40.8869 32.1399 40.5525 32.2686 40.2238 32.3053C39.9058 32.3409 39.659 32.2934 39.4834 32.1627C39.3078 32.0321 39.2093 31.8714 39.188 31.6806C39.1595 31.4262 39.2194 31.0975 39.3675 30.6945C39.5262 30.2904 39.7568 29.8567 40.0592 29.3936C40.2321 29.1166 40.4039 28.8774 40.5746 28.6758C40.7452 28.4743 40.9442 28.2857 41.1714 28.11C41.6128 27.642 42.0525 27.2548 42.4904 26.9482C42.9672 26.6051 43.3647 26.4157 43.6827 26.3801C43.9689 26.3481 44.2192 26.3792 44.4337 26.4732C44.7059 26.6038 44.8598 26.8281 44.8953 27.1461C44.9273 27.4323 44.871 27.7445 44.7264 28.0827C44.5806 28.4103 44.3652 28.7402 44.0804 29.0726C44.0428 29.1198 43.981 29.1911 43.895 29.2866C43.8079 29.3714 43.6973 29.4858 43.5631 29.6296C43.1982 30.0138 43.0282 30.3173 43.0531 30.5399C43.065 30.6459 43.1246 30.7466 43.2318 30.8419C43.3391 30.9372 43.4351 30.9802 43.5199 30.9707C43.9545 30.9221 44.4703 30.7356 45.0673 30.4112C45.2286 30.318 45.4241 30.1942 45.6537 30.0397C45.8927 29.8735 46.1646 29.666 46.4695 29.4172C46.7156 29.218 46.8651 29.1154 46.9181 29.1094C46.9923 29.1011 47.0648 29.1252 47.1355 29.1817C47.2062 29.2382 47.2516 29.3083 47.2717 29.3919ZM44.2028 27.288C44.1969 27.235 44.1592 27.1855 44.0896 27.1396C44.0201 27.0937 43.9423 27.0702 43.8563 27.0691C43.6302 27.0622 43.2975 27.2067 42.8584 27.5027C42.4993 27.7468 42.2103 27.9938 41.9913 28.2437C41.9254 28.3262 41.8619 28.4299 41.8007 28.5548C41.7384 28.6691 41.6937 28.7492 41.6666 28.7952C41.6349 28.8953 41.6114 28.9731 41.5961 29.0285C41.5797 29.0733 41.5538 29.1298 41.5185 29.1982C41.4467 29.3243 41.355 29.4633 41.2432 29.6153C41.1408 29.7556 41.056 29.8617 40.989 29.9336C41.0632 30.0219 41.1127 30.0807 41.1375 30.1102C41.1717 30.1278 41.2506 30.1619 41.3743 30.2125L41.9413 29.9559C42.1757 29.8438 42.4105 29.6887 42.646 29.4907C42.7249 29.4282 42.7979 29.361 42.8649 29.2891C42.9426 29.216 43.0156 29.1488 43.0839 29.0875C43.151 29.0156 43.2275 28.9319 43.3134 28.8364C43.4087 28.7292 43.4982 28.6172 43.5817 28.5005C43.6653 28.3838 43.7441 28.273 43.8183 28.1682C43.9018 28.0515 43.9701 27.9419 44.023 27.8394C44.1559 27.5884 44.2159 27.4046 44.2028 27.288ZM40.668 30.8067L40.3851 30.5807C40.2521 30.7351 40.151 30.886 40.0816 31.0332C40.011 31.1699 39.984 31.3125 40.0006 31.4609C40.0089 31.5351 40.0772 31.5704 40.2056 31.5668C40.3446 31.562 40.4948 31.513 40.6561 31.4198C40.8268 31.3148 40.9581 31.1928 41.0498 31.0538L40.668 30.8067ZM56.5872 28.1568C56.5979 28.2522 56.4314 28.4426 56.0876 28.7279C55.9205 28.8646 55.7474 28.9967 55.5684 29.124C55.4001 29.2502 55.2199 29.3669 55.028 29.4743C54.8467 29.5804 54.6595 29.6819 54.4664 29.7786C54.2733 29.8753 54.0843 29.9609 53.8994 30.0352C53.7145 30.1095 53.539 30.1721 53.373 30.2229C53.2175 30.2725 53.0868 30.3032 52.9808 30.315C52.3554 30.385 52.0077 30.1072 51.9377 29.4818C51.914 29.2698 51.9944 28.9334 52.179 28.4727C52.2473 28.3148 52.3096 28.1522 52.366 27.9849C52.433 27.8164 52.5006 27.6532 52.5688 27.4954C52.3404 27.6604 52.1244 27.8402 51.9208 28.0347C51.7159 28.2186 51.4899 28.4532 51.2428 28.7384L50.3159 29.8081C50.0017 30.1652 49.7863 30.3503 49.6696 30.3634C49.553 30.3764 49.4411 30.3353 49.3338 30.2399C49.2266 30.1446 49.1652 30.028 49.1498 29.8902C49.1368 29.7736 49.2827 29.4943 49.5874 29.0524C49.6345 28.9935 49.6951 28.9115 49.7692 28.8067C49.8434 28.7018 49.9416 28.5727 50.064 28.4195C50.297 28.1036 50.4935 27.7972 50.6535 27.5003C50.8241 27.2021 50.9299 26.9488 50.971 26.7403C50.6507 26.9478 50.2864 27.2408 49.8779 27.6192C49.5942 27.8656 49.3229 28.1267 49.0639 28.4025C48.8144 28.6666 48.5708 28.9353 48.333 29.2088C48.2295 29.3384 48.0977 29.5034 47.9376 29.7038C47.787 29.8924 47.6087 30.1216 47.4027 30.3915C46.6837 31.3521 46.2488 31.83 46.098 31.8254C45.992 31.8373 45.8966 31.7997 45.8117 31.7125C45.7174 31.6372 45.6643 31.5466 45.6525 31.4406C45.643 31.3558 45.7965 31.0971 46.1131 30.6646C46.1872 30.5597 46.2667 30.4542 46.3514 30.3481C46.4361 30.242 46.515 30.1312 46.5879 30.0158C47.0351 29.4076 47.3404 28.971 47.504 28.7058C47.6605 28.4736 47.8023 28.2539 47.9293 28.0465C48.0658 27.8273 48.187 27.6151 48.2929 27.4101C48.4364 27.1579 48.6133 26.7249 48.8238 26.111C48.9648 25.7411 49.089 25.5555 49.1962 25.5542C49.3128 25.5412 49.4117 25.5623 49.4931 25.6176C49.5838 25.6611 49.6321 25.7577 49.6381 25.9073C49.6441 25.9603 49.6365 26.0362 49.6153 26.1352C49.6048 26.233 49.5796 26.3431 49.5396 26.4657C49.5102 26.587 49.4762 26.7143 49.4374 26.8474C49.3986 26.9805 49.3528 27.0984 49.2998 27.2009L50.4512 26.2671L51.1611 25.7047C51.4071 25.5055 51.5672 25.4017 51.6414 25.3934C51.7687 25.3792 51.8824 25.4362 51.9826 25.5646C52.0828 25.6929 52.1448 25.863 52.1685 26.0751C52.1827 26.2023 52.1616 26.3978 52.1053 26.6617C52.056 26.8926 52.0331 27.024 52.0367 27.0558L52.5947 26.5748C52.6724 26.5017 52.75 26.4286 52.8277 26.3555C52.9054 26.2824 52.9772 26.2046 53.0431 26.1221C53.222 25.8982 53.4233 25.6825 53.6469 25.475C53.8988 25.2322 54.0737 25.116 54.1715 25.1265C54.4648 25.1581 54.6334 25.37 54.6773 25.7623C54.6856 25.8365 54.6009 25.9908 54.4232 26.2254C54.2655 26.4469 54.126 26.6396 54.0048 26.8035C53.893 26.9555 53.8048 27.0781 53.74 27.1712C53.64 27.3326 53.5359 27.5053 53.4277 27.6891C53.3183 27.8623 53.2153 28.0456 53.1189 28.2388C52.8566 28.7726 52.7373 29.1455 52.761 29.3575C52.7823 29.5483 52.8884 29.6331 53.0792 29.6117C53.27 29.5904 53.5338 29.5019 53.8706 29.3461C53.9719 29.2919 54.0937 29.2299 54.2362 29.1603C54.3787 29.0907 54.5353 29.0035 54.706 28.8985C54.8768 28.7935 55.0475 28.6886 55.2182 28.5836C55.3889 28.4787 55.5532 28.3637 55.7109 28.2387C56.0476 27.9864 56.2372 27.8579 56.2796 27.8531C56.4598 27.833 56.5623 27.9342 56.5872 28.1568ZM59.0295 24.7603C59.0449 24.8981 58.8307 25.1904 58.387 25.6371L57.5907 26.4346C57.5153 26.5289 57.4394 26.6179 57.3629 26.7016C57.2958 26.7735 57.2393 26.8442 57.1935 26.9137L56.8352 27.4529C56.7646 27.5896 56.6905 27.7911 56.613 28.0573C56.573 28.1799 56.5419 28.2853 56.5196 28.3737C56.5078 28.4608 56.4991 28.5262 56.4932 28.5698C56.5815 28.4955 56.6698 28.4213 56.7581 28.347C56.8464 28.2727 56.9511 28.202 57.0724 28.1347C57.1831 28.0687 57.2738 28.0156 57.3444 27.9755C57.4139 27.9248 57.4692 27.8918 57.5104 27.8765C57.6635 27.8057 57.8037 27.7632 57.9309 27.7489C58.0793 27.7323 58.2195 27.7864 58.3515 27.9112C58.4835 28.0359 58.5578 28.1725 58.5744 28.3209C58.6041 28.586 58.4247 28.9495 58.0363 29.4115C57.5808 29.9454 57.0934 30.2415 56.574 30.2996C56.2241 30.3387 55.985 30.2635 55.8564 30.0739C55.7373 29.8726 55.6564 29.5811 55.6137 29.1995C55.5782 28.8815 55.6903 28.3966 55.9502 27.7451C56.2112 27.1041 56.5589 26.5178 56.9931 25.9862C57.3403 25.5395 57.6581 25.1659 57.9464 24.8653C58.2442 24.553 58.462 24.3891 58.5998 24.3737C58.7482 24.3571 58.8531 24.3829 58.9144 24.4512C58.9757 24.5194 59.0141 24.6225 59.0295 24.7603ZM57.8713 28.5123C57.8124 28.4652 57.7776 28.4423 57.767 28.4434C57.7152 28.46 57.6593 28.4877 57.5992 28.5266C57.5486 28.5537 57.4285 28.6316 57.239 28.7601C57.1883 28.7872 57.1283 28.8261 57.0588 28.8768C57 28.9264 56.9317 28.9877 56.854 29.0608L56.5326 29.3543C56.5893 29.4768 56.6494 29.5344 56.713 29.5273C56.8402 29.5131 57.0551 29.371 57.3576 29.101C57.5142 28.9655 57.6354 28.8499 57.7213 28.7544C57.8167 28.6472 57.8667 28.5665 57.8713 28.5123ZM73.0247 24.8372C73.0496 25.0598 73.0116 25.3431 72.9105 25.6871C72.8189 26.0194 72.6766 26.3305 72.4836 26.6204C72.2553 26.9786 71.8951 27.3087 71.403 27.6106C71.0121 27.8583 70.6947 27.9957 70.4509 28.023C70.2389 28.0467 70.0327 28.0268 69.8324 27.9634C69.5638 27.8646 69.417 27.704 69.3921 27.4813C69.3696 27.2799 69.3736 27.1238 69.4042 27.0131C69.4453 26.9012 69.5283 26.7792 69.653 26.6472C69.7766 26.5046 69.9238 26.3808 70.0945 26.2758C70.2652 26.1708 70.3836 26.1254 70.4495 26.1395C70.5615 26.1806 70.6181 26.2548 70.6193 26.362C70.6158 26.4268 70.5623 26.524 70.4587 26.6537C70.2304 26.9153 70.1086 27.0738 70.0933 27.1292C70.0569 27.2836 70.15 27.3483 70.3727 27.3234C70.6165 27.2961 70.8732 27.1923 71.1428 27.0118C71.4112 26.8208 71.6425 26.5857 71.8367 26.3063C72.1426 25.875 72.2902 25.4667 72.2793 25.0816C72.2248 24.5939 72.0491 24.3667 71.7523 24.3999C71.4554 24.4331 71.1092 24.5523 70.7136 24.7576C70.3262 24.9404 70.0318 25.1397 69.8306 25.3554C69.7741 25.4262 69.6699 25.5988 69.5182 25.8734L69.243 26.4354C69.302 26.5791 69.2897 26.7576 69.2062 26.9708C69.1804 27.124 69.0739 27.2754 68.8868 27.4252C68.709 27.5631 68.5312 27.6528 68.3534 27.6941C68.2004 27.9581 68.0545 28.2374 67.9158 28.5319C67.7758 28.8159 67.6429 29.1152 67.5171 29.4298L66.7922 31.298C66.65 31.6573 66.5124 32.0108 66.3796 32.3584C66.2573 32.7048 66.1398 33.0453 66.0269 33.3799L65.5702 34.6224C65.4244 34.95 65.2931 35.1203 65.1765 35.1333C65.0493 35.1475 64.9333 35.1176 64.8284 35.0435C64.7141 34.9811 64.651 34.8969 64.6392 34.7909C64.6107 34.5365 64.6341 34.2656 64.7092 33.9781C64.7609 33.7684 64.8761 33.455 65.0549 33.0379L65.9581 31.0371C66.0345 30.8568 66.1192 30.6541 66.2121 30.4291C66.3156 30.2028 66.4279 29.9595 66.549 29.6991C66.6702 29.4387 66.7695 29.2236 66.8472 29.054C66.9342 28.8725 66.9942 28.737 67.0271 28.6474L66.6298 28.9817C66.372 29.1715 66.1052 29.2818 65.8296 29.3127C65.5964 29.3387 65.4043 29.2529 65.2534 29.0551C65.1013 28.8467 65.0104 28.61 64.9808 28.345C64.8954 27.5818 65.0821 26.6593 65.5407 25.5776C65.7041 25.2159 65.8812 24.8795 66.0718 24.5683C66.2624 24.2572 66.4677 23.982 66.6878 23.7428C67.1939 23.1817 67.6908 22.8739 68.1784 22.8194C68.6873 22.7624 69.0602 22.9783 69.2974 23.467C69.3516 23.5683 69.4467 23.9387 69.5826 24.5782C69.8605 24.3754 70.2261 24.1896 70.6795 24.0208C71.1211 23.8426 71.4691 23.7393 71.7235 23.7108C72.1793 23.6599 72.5198 23.7774 72.745 24.0635C72.8959 24.2613 72.9892 24.5192 73.0247 24.8372ZM68.7236 24.0947C68.7058 23.9357 68.6474 23.7973 68.5483 23.6796C68.4587 23.5501 68.3556 23.4918 68.239 23.5049C67.868 23.5464 67.4548 23.8824 66.9994 24.5129C66.6075 25.0397 66.2969 25.6219 66.0677 26.2593C65.9913 26.4396 65.926 26.624 65.872 26.8125C65.8285 26.9998 65.7898 27.1812 65.7558 27.3568C65.7311 27.5205 65.71 27.6678 65.6925 27.7985C65.6843 27.9175 65.6838 28.0088 65.6909 28.0724C65.7004 28.1572 65.727 28.2508 65.7706 28.3533C65.8237 28.4439 65.9138 28.4822 66.041 28.4679C66.2236 28.469 66.5409 28.2349 66.9929 27.7658C67.4461 27.3072 67.8168 26.8311 68.105 26.3373C68.3368 25.9143 68.5443 25.4671 68.7277 24.9958C68.7582 24.6919 68.7568 24.3915 68.7236 24.0947ZM80.1371 25.6839C80.1265 25.7817 79.97 25.9655 79.6675 26.2355C79.5109 26.3711 79.349 26.5073 79.1819 26.644C79.0147 26.7808 78.8416 26.9128 78.6627 27.0402C78.4943 27.1663 78.3089 27.2837 78.1064 27.3922C77.9144 27.4995 77.7172 27.6074 77.5147 27.716C77.086 27.9142 76.7657 28.0251 76.5537 28.0488C76.0343 28.1069 75.7449 27.871 75.6857 27.3409C75.6655 27.1607 75.7395 26.8627 75.9076 26.4467C75.9853 26.277 76.1593 25.9141 76.4299 25.3579L76.6945 24.8453C76.891 24.4906 76.9827 24.255 76.9696 24.1384C76.9578 24.0324 76.8989 23.9853 76.7929 23.9972C76.6338 24.0149 76.4401 24.1064 76.2117 24.2714C75.9822 24.4259 75.7555 24.6069 75.5319 24.8144C75.4059 24.9358 75.2817 25.0731 75.1594 25.2263C75.0464 25.3678 74.9434 25.5027 74.8504 25.6312L73.8659 27.625C73.6624 28.0126 73.4589 28.4003 73.2554 28.788C73.0625 29.1745 72.8649 29.5669 72.6626 29.9652L71.2263 32.6696C70.8381 33.4214 70.5804 33.8044 70.4532 33.8187C70.3472 33.8305 70.2489 33.8147 70.1581 33.7712C70.058 33.7394 70.0026 33.6759 69.9919 33.5805C69.986 33.5275 70.0424 33.3602 70.1612 33.0785C70.2705 32.8087 70.3993 32.5206 70.5475 32.2142C70.6439 32.021 70.7486 31.8054 70.8615 31.5673C70.9756 31.3399 71.108 31.0836 71.2585 30.7984L72.2149 28.9849L73.7765 26.1055C73.7506 26.0655 73.7575 25.8393 73.7972 25.427C73.803 25.2868 73.996 24.9969 74.3761 24.5572L75.0293 23.7758L76.2192 22.3225L76.9058 21.4086C77.1376 21.0821 77.3054 20.9023 77.409 20.8693C77.5221 20.8244 77.6181 20.8674 77.6971 20.9981C77.7867 21.1276 77.8404 21.2718 77.8582 21.4308C77.8689 21.5262 77.7742 21.6871 77.5741 21.9134L77.1027 22.4491L76.3737 23.4161L76.6546 23.3364C76.8618 23.2703 77.0344 23.2296 77.1722 23.2141C77.31 23.1987 77.4343 23.2546 77.5451 23.3817C77.6653 23.4971 77.7355 23.6449 77.7557 23.8251C77.7699 23.9523 77.7453 24.116 77.6818 24.3163C77.6184 24.5166 77.5349 24.7299 77.4314 24.9561C77.3279 25.1824 77.2097 25.421 77.0768 25.672C76.9533 25.9112 76.8339 26.1392 76.7186 26.356C76.5233 26.7213 76.4328 26.9676 76.447 27.0948C76.4636 27.2432 76.5885 27.3044 76.8217 27.2783C76.9807 27.2605 77.2669 27.1319 77.6802 26.8925L78.3124 26.4998C78.4631 26.4078 78.7016 26.2362 79.0277 25.9851C79.5421 25.5948 79.8153 25.3979 79.8471 25.3943C80.0131 25.3436 80.1098 25.4401 80.1371 25.6839ZM84.2473 25.1276C84.2615 25.2548 84.0244 25.5335 83.5359 25.9638C83.291 26.1737 83.055 26.3665 82.8277 26.5421C82.6005 26.7178 82.3868 26.8705 82.1867 27.0002C81.7958 27.2479 81.4714 27.4183 81.2135 27.5116C80.9886 27.6119 80.6906 27.6827 80.3196 27.7242C79.9062 27.7705 79.5822 27.6565 79.3476 27.3822C79.1731 27.1656 79.0704 26.9194 79.0396 26.6438C78.9993 26.2834 79.0349 25.8823 79.1465 25.4405C79.2675 24.9869 79.4939 24.4678 79.8256 23.8834C80.0856 23.4249 80.4192 23.0012 80.8265 22.6122C81.3115 22.1501 81.7607 21.8959 82.1741 21.8497C82.3013 21.8355 82.4239 21.8754 82.5417 21.9696C82.6596 22.0637 82.7268 22.185 82.7434 22.3334C82.7897 22.7469 82.6852 23.204 82.4299 23.7048C82.2793 23.9899 82.0358 24.3553 81.6992 24.8008C81.5674 24.9658 81.3997 25.1455 81.196 25.3401C81.003 25.5334 80.7687 25.742 80.4932 25.966L79.8275 26.4913C79.8417 26.6185 79.8978 26.7357 79.9956 26.8428C80.0935 26.9499 80.1954 26.9975 80.3014 26.9857C80.5876 26.9537 80.8985 26.8545 81.2341 26.6882C81.386 26.6068 81.5932 26.4924 81.8558 26.3449C82.1172 26.1869 82.4551 25.9452 82.8695 25.6198C83.59 25.0562 83.9608 24.7732 83.982 24.7709C84.0539 24.7414 84.1163 24.7719 84.1694 24.8626C84.2213 24.9427 84.2472 25.031 84.2473 25.1276ZM82.0865 22.7933C82.0852 22.6861 82.0369 22.6378 81.9415 22.6485C81.8143 22.6627 81.6259 22.8019 81.3764 23.0659C81.1257 23.3194 80.8979 23.5863 80.6932 23.8668C80.499 24.1461 80.3278 24.439 80.1796 24.7453C80.162 24.7795 80.1232 24.8644 80.0632 24.9999C80.0126 25.1236 79.9409 25.298 79.848 25.523C80.0635 25.4345 80.2784 25.2924 80.4926 25.0967C80.7163 24.8893 80.9364 24.65 81.1529 24.3789C81.2671 24.2481 81.3748 24.1072 81.476 23.9564C81.5866 23.7937 81.6913 23.6264 81.7901 23.4543C81.9795 23.1326 82.0783 22.9123 82.0865 22.7933ZM91.4366 24.1625C91.4803 24.265 91.2289 24.5131 90.6827 24.9069C90.6038 24.9694 90.4943 25.0461 90.3542 25.1369C90.2141 25.2277 90.0439 25.3379 89.8438 25.4676C89.5836 25.6363 89.3734 25.7725 89.2133 25.8762C89.0532 25.98 88.9425 26.0461 88.8813 26.0744C88.5174 26.2761 88.1871 26.3935 87.8903 26.4267C87.6359 26.4552 87.4462 26.3905 87.3212 26.2328C87.1962 26.075 87.1219 25.8901 87.0982 25.6781C87.0816 25.5297 87.0803 25.3742 87.0943 25.2117C87.1071 25.0385 87.1247 24.8594 87.1469 24.6745C86.6441 24.881 86.0329 25.0781 85.3133 25.266C85.2615 25.2825 85.1932 25.2955 85.1084 25.305C85.0754 25.2979 84.9953 25.3015 84.8681 25.3158C84.6847 25.7871 84.4506 26.2855 84.1659 26.8111L83.776 27.6436C83.6278 27.9499 83.4954 28.1096 83.3788 28.1227C83.2304 28.1393 83.0985 28.1111 82.983 28.0382C82.8675 27.9652 82.8015 27.8545 82.7849 27.7061C82.7742 27.6107 82.9182 27.2189 83.2169 26.5308C83.505 25.8439 83.7609 25.3967 83.9845 25.1892L83.6292 24.8908C83.5113 24.7967 83.4435 24.6701 83.4257 24.5111C83.4198 24.4581 83.4292 24.398 83.4538 24.3308C83.4773 24.2531 83.5126 24.1847 83.5597 24.1258C83.6056 24.0563 83.6586 24.0021 83.7186 23.9631C83.7787 23.9242 83.8411 23.9065 83.9059 23.91C83.9718 23.9241 84.0567 23.9629 84.1604 24.0264C84.2735 24.0782 84.3583 24.117 84.4149 24.1429L84.7095 23.4659L85.1382 22.5486C85.1747 22.4908 85.2799 22.2322 85.4539 21.7727C85.662 21.2342 85.8509 20.9555 86.0205 20.9365C86.1583 20.9211 86.2749 20.9564 86.3704 21.0423C86.4659 21.1282 86.5048 21.2366 86.4872 21.3673C86.4708 21.5087 86.4015 21.7043 86.2792 21.9541C86.1568 22.2039 86.0392 22.4478 85.9263 22.6858L85.6194 23.3963C85.4077 23.903 85.2713 24.2188 85.2102 24.3437L85.5953 24.3328C85.977 24.2901 86.3462 24.1845 86.7029 24.0157L87.5348 23.5363L88.3466 22.1575C88.4654 21.9725 88.566 21.8164 88.6484 21.6891C88.7414 21.5606 88.8267 21.4599 88.9044 21.3868C89.1162 21.1699 89.3282 21.0496 89.5402 21.0259C89.6568 21.0128 89.7746 21.0587 89.8937 21.1634C90.0221 21.2564 90.0941 21.3718 90.1095 21.5096C90.1225 21.6262 90.0767 21.7923 89.972 22.0079C89.8768 22.2118 89.7603 22.418 89.6226 22.6266C89.4579 22.8812 89.2643 23.1175 89.0418 23.3356C88.83 23.5525 88.6281 23.7146 88.4361 23.8219C88.2396 24.08 88.0861 24.3387 87.9755 24.5979C87.8756 24.8559 87.8375 25.091 87.8612 25.303C87.8897 25.5574 87.9781 25.6763 88.1265 25.6597C88.1901 25.6526 88.3032 25.6077 88.4656 25.5252C88.627 25.432 88.813 25.32 89.0237 25.1891C89.2333 25.0476 89.4582 24.899 89.6984 24.7433C89.9374 24.5771 90.1717 24.4167 90.4013 24.2622C90.8122 24.0016 91.05 23.873 91.1148 23.8765C91.222 23.8752 91.3074 23.9194 91.3711 24.0088L91.4366 24.1625ZM96.4234 23.5082C96.4352 23.6142 96.1857 23.8782 95.6748 24.3003C95.4193 24.5113 95.1674 24.7059 94.919 24.8839C94.6706 25.062 94.431 25.2229 94.2002 25.3668C93.7163 25.6463 93.2959 25.8704 92.9391 26.0391C92.5811 26.1972 92.2696 26.2911 92.0046 26.3207C91.6124 26.3646 91.322 26.3112 91.1334 26.1606C90.9543 25.9982 90.8522 25.8056 90.8273 25.583C90.8214 25.53 90.8331 25.4429 90.8625 25.3215C90.8907 25.1896 90.9324 25.0346 90.9876 24.8567C91.0428 24.6788 91.1069 24.4838 91.1798 24.2717C91.2526 24.0597 91.3302 23.8417 91.4125 23.6178C91.4525 23.4953 91.5025 23.3663 91.5624 23.2307C91.6318 23.0835 91.7059 22.9303 91.7847 22.7712L92.0617 22.225C91.9817 22.2769 91.8356 22.3147 91.6236 22.3384C91.5282 22.3491 91.431 22.3439 91.3321 22.3227C91.2437 22.3004 91.1548 22.2728 91.0652 22.2399C90.9499 22.4567 90.8258 22.6423 90.6928 22.7967C90.5598 22.9511 90.445 23.0284 90.3484 23.0284C90.1046 23.0557 89.9867 22.9616 89.9948 22.746C90.0066 22.6588 90.0348 22.5752 90.0795 22.495C90.2454 22.2511 90.3395 22.0849 90.3618 21.9966C90.3618 21.9966 90.3488 21.9765 90.3229 21.9365C90.3076 21.8953 90.2863 21.8494 90.2592 21.7987C90.2427 21.7469 90.2267 21.7004 90.2114 21.6592C90.1949 21.6074 90.186 21.5762 90.1848 21.5656C90.1635 21.3747 90.2128 21.1921 90.3328 21.0177C90.4529 20.8433 90.5765 20.749 90.7037 20.7347C90.8203 20.7217 90.9252 20.7958 91.0183 20.9571C91.1209 21.1067 91.2235 21.2562 91.3261 21.4057C91.385 21.4528 91.4434 21.4946 91.5011 21.531C91.5577 21.5569 91.6337 21.5645 91.7291 21.5538C91.9517 21.5289 92.1849 21.4546 92.4286 21.3307C92.683 21.2057 92.909 21.0677 93.1068 20.9168L93.4988 20.5348C93.5777 20.4723 93.6766 20.4452 93.7956 20.4533C93.9357 20.4591 94.0494 20.5162 94.1367 20.6245C94.2345 20.7316 94.2929 20.87 94.3119 21.0396C94.3261 21.1668 94.1796 21.3442 93.8723 21.5717C93.744 21.6719 93.6098 21.7674 93.4697 21.8582C93.339 21.9373 93.1971 22.0122 93.044 22.083C92.8463 22.3305 92.6486 22.6263 92.451 22.9704C92.264 23.3133 92.1299 23.602 92.0488 23.8364L91.7667 24.7696C91.6892 25.0358 91.6563 25.222 91.6682 25.328C91.6895 25.5188 91.8168 25.6012 92.05 25.5751C92.3044 25.5466 92.656 25.4268 93.1046 25.2156C93.2294 25.1802 93.3978 25.1023 93.6098 24.982C93.8205 24.8511 94.0607 24.6955 94.3303 24.5151C94.6 24.3346 94.8831 24.1312 95.1798 23.9049C95.4871 23.6773 95.7825 23.4403 96.0662 23.1939C96.2783 23.1702 96.3973 23.275 96.4234 23.5082Z" fill="#274138"/>
</svg>
