<svg width="24" height="24" viewBox="0 0 24 24" fill="none" xmlns="http://www.w3.org/2000/svg">
<mask id="path-1-inside-1_351_236" fill="white">
<path d="M11.6635 23.4989C18.0122 23.4989 23.1641 18.3482 23.1641 11.9995C23.1641 5.65074 18.0122 0.5 11.6635 0.5C5.31587 0.5 0.164062 5.65074 0.164062 11.9995C0.164062 18.3482 5.31587 23.4989 11.6635 23.4989ZM11.6635 22.8054C5.68407 22.8054 0.844665 17.9789 0.844665 11.9995C0.844665 6.01999 5.68407 1.19356 11.6635 1.19356C17.643 1.19356 22.4694 6.01999 22.4694 11.9995C22.4694 17.9789 17.643 22.8054 11.6635 22.8054Z"/>
</mask>
<path d="M11.6635 23.4989C18.0122 23.4989 23.1641 18.3482 23.1641 11.9995C23.1641 5.65074 18.0122 0.5 11.6635 0.5C5.31587 0.5 0.164062 5.65074 0.164062 11.9995C0.164062 18.3482 5.31587 23.4989 11.6635 23.4989ZM11.6635 22.8054C5.68407 22.8054 0.844665 17.9789 0.844665 11.9995C0.844665 6.01999 5.68407 1.19356 11.6635 1.19356C17.643 1.19356 22.4694 6.01999 22.4694 11.9995C22.4694 17.9789 17.643 22.8054 11.6635 22.8054Z" fill="#274138"/>
<path d="M11.6635 24.4989C18.5644 24.4989 24.1641 18.9006 24.1641 11.9995H22.1641C22.1641 17.7958 17.4601 22.4989 11.6635 22.4989V24.4989ZM24.1641 11.9995C24.1641 5.09833 18.5644 -0.5 11.6635 -0.5V1.5C17.4601 1.5 22.1641 6.20314 22.1641 11.9995H24.1641ZM11.6635 -0.5C4.76364 -0.5 -0.835938 5.09839 -0.835938 11.9995H1.16406C1.16406 6.20308 5.86809 1.5 11.6635 1.5V-0.5ZM-0.835938 11.9995C-0.835938 18.9005 4.76364 24.4989 11.6635 24.4989V22.4989C5.86809 22.4989 1.16406 17.7959 1.16406 11.9995H-0.835938ZM11.6635 21.8054C6.23479 21.8054 1.84467 17.4251 1.84467 11.9995H-0.155335C-0.155335 18.5328 5.13335 23.8054 11.6635 23.8054V21.8054ZM1.84467 11.9995C1.84467 6.57384 6.23479 2.19356 11.6635 2.19356V0.193559C5.13335 0.193559 -0.155335 5.46614 -0.155335 11.9995H1.84467ZM11.6635 2.19356C17.0907 2.19356 21.4694 6.57227 21.4694 11.9995H23.4694C23.4694 5.46771 18.1953 0.193559 11.6635 0.193559V2.19356ZM21.4694 11.9995C21.4694 17.4266 17.0907 21.8054 11.6635 21.8054V23.8054C18.1953 23.8054 23.4694 18.5312 23.4694 11.9995H21.4694Z" fill="#274138" mask="url(#path-1-inside-1_351_236)"/>
<mask id="path-3-inside-2_351_236" fill="white">
<path d="M9.63873 17.0131C9.85489 17.0131 9.97419 16.8657 9.97419 16.6636V15.0315H12.9061C13.0503 15.0315 13.1461 14.9368 13.1461 14.7775C13.1461 14.6473 13.0503 14.5656 12.9061 14.5656H9.97419V12.9029H12.2803C14.1651 12.9029 15.456 11.7841 15.456 9.94909C15.456 8.05379 14.0929 6.99219 12.2964 6.99219H9.63978C9.42573 6.99219 9.30538 7.1287 9.30538 7.35783V12.4358H8.02851C7.8692 12.4358 7.77344 12.5327 7.77344 12.6769C7.77344 12.8081 7.8692 12.9029 8.02851 12.9029H9.30538V14.5656H8.02851C7.8692 14.5656 7.77344 14.6473 7.77344 14.7775C7.77344 14.9368 7.8692 15.0315 8.02851 15.0315H9.30538V16.6636C9.30538 16.8657 9.42363 17.0131 9.63873 17.0131ZM9.97419 12.3092V7.5901H12.1265C13.7739 7.5901 14.743 8.45518 14.743 9.94909C14.743 11.4038 13.8239 12.3092 12.1265 12.3092H9.97419Z"/>
</mask>
<path d="M9.63873 17.0131C9.85489 17.0131 9.97419 16.8657 9.97419 16.6636V15.0315H12.9061C13.0503 15.0315 13.1461 14.9368 13.1461 14.7775C13.1461 14.6473 13.0503 14.5656 12.9061 14.5656H9.97419V12.9029H12.2803C14.1651 12.9029 15.456 11.7841 15.456 9.94909C15.456 8.05379 14.0929 6.99219 12.2964 6.99219H9.63978C9.42573 6.99219 9.30538 7.1287 9.30538 7.35783V12.4358H8.02851C7.8692 12.4358 7.77344 12.5327 7.77344 12.6769C7.77344 12.8081 7.8692 12.9029 8.02851 12.9029H9.30538V14.5656H8.02851C7.8692 14.5656 7.77344 14.6473 7.77344 14.7775C7.77344 14.9368 7.8692 15.0315 8.02851 15.0315H9.30538V16.6636C9.30538 16.8657 9.42363 17.0131 9.63873 17.0131ZM9.97419 12.3092V7.5901H12.1265C13.7739 7.5901 14.743 8.45518 14.743 9.94909C14.743 11.4038 13.8239 12.3092 12.1265 12.3092H9.97419Z" fill="#274138"/>
<path d="M9.97419 15.0315V14.0315H8.97419V15.0315H9.97419ZM9.97419 14.5656H8.97419V15.5656H9.97419V14.5656ZM9.97419 12.9029V11.9029H8.97419V12.9029H9.97419ZM9.30538 12.4358V13.4358H10.3054V12.4358H9.30538ZM9.30538 12.9029H10.3054V11.9029H9.30538V12.9029ZM9.30538 14.5656V15.5656H10.3054V14.5656H9.30538ZM9.30538 15.0315H10.3054V14.0315H9.30538V15.0315ZM9.97419 12.3092H8.97419V13.3092H9.97419V12.3092ZM9.97419 7.5901V6.5901H8.97419V7.5901H9.97419ZM9.63873 18.0131C9.98651 18.0131 10.353 17.8867 10.6252 17.5893C10.8862 17.3041 10.9742 16.9567 10.9742 16.6636H8.97419C8.97419 16.5727 9.00253 16.4 9.14983 16.239C9.30836 16.0658 9.50711 16.0131 9.63873 16.0131V18.0131ZM10.9742 16.6636V15.0315H8.97419V16.6636H10.9742ZM9.97419 16.0315H12.9061V14.0315H9.97419V16.0315ZM12.9061 16.0315C13.2025 16.0315 13.5395 15.9289 13.8005 15.6579C14.0584 15.39 14.1461 15.0579 14.1461 14.7775H12.1461C12.1461 14.6564 12.1858 14.4513 12.3598 14.2706C12.5369 14.0867 12.7538 14.0315 12.9061 14.0315V16.0315ZM14.1461 14.7775C14.1461 14.4506 14.0168 14.1134 13.7384 13.87C13.4743 13.639 13.1615 13.5656 12.9061 13.5656V15.5656C12.7949 15.5656 12.602 15.533 12.4218 15.3755C12.2274 15.2054 12.1461 14.9742 12.1461 14.7775H14.1461ZM12.9061 13.5656H9.97419V15.5656H12.9061V13.5656ZM10.9742 14.5656V12.9029H8.97419V14.5656H10.9742ZM9.97419 13.9029H12.2803V11.9029H9.97419V13.9029ZM12.2803 13.9029C13.4172 13.9029 14.4694 13.5637 15.2487 12.8531C16.0387 12.1328 16.456 11.1138 16.456 9.94909H14.456C14.456 10.6193 14.2279 11.0773 13.9012 11.3751C13.5639 11.6827 13.0282 11.9029 12.2803 11.9029V13.9029ZM16.456 9.94909C16.456 8.74506 16.014 7.72309 15.2141 7.01235C14.4292 6.31496 13.3858 5.99219 12.2964 5.99219V7.99219C13.0035 7.99219 13.5399 8.20022 13.8857 8.50745C14.2165 8.80135 14.456 9.25782 14.456 9.94909H16.456ZM12.2964 5.99219H9.63978V7.99219H12.2964V5.99219ZM9.63978 5.99219C9.31226 5.99219 8.93543 6.10385 8.6511 6.41782C8.37973 6.71746 8.30538 7.07734 8.30538 7.35783H10.3054C10.3054 7.40918 10.2912 7.58624 10.1335 7.76035C9.96288 7.94878 9.75326 7.99219 9.63978 7.99219V5.99219ZM8.30538 7.35783V12.4358H10.3054V7.35783H8.30538ZM9.30538 11.4358H8.02851V13.4358H9.30538V11.4358ZM8.02851 11.4358C7.74538 11.4358 7.41405 11.5253 7.14754 11.782C6.87803 12.0416 6.77344 12.3776 6.77344 12.6769H8.77344C8.77344 12.832 8.71672 13.0475 8.53493 13.2226C8.35613 13.3948 8.15234 13.4358 8.02851 13.4358V11.4358ZM6.77344 12.6769C6.77344 12.9966 6.89654 13.3304 7.16652 13.5772C7.43001 13.818 7.75152 13.9029 8.02851 13.9029V11.9029C8.1462 11.9029 8.34017 11.9403 8.51595 12.101C8.69821 12.2676 8.77344 12.4884 8.77344 12.6769H6.77344ZM8.02851 13.9029H9.30538V11.9029H8.02851V13.9029ZM8.30538 12.9029V14.5656H10.3054V12.9029H8.30538ZM9.30538 13.5656H8.02851V15.5656H9.30538V13.5656ZM8.02851 13.5656C7.78794 13.5656 7.47265 13.6272 7.19938 13.8559C6.90523 14.1021 6.77344 14.4482 6.77344 14.7775H8.77344C8.77344 14.9766 8.68953 15.2167 8.48309 15.3895C8.29753 15.5449 8.10978 15.5656 8.02851 15.5656V13.5656ZM6.77344 14.7775C6.77344 15.0584 6.86196 15.4008 7.13625 15.6735C7.40972 15.9453 7.75091 16.0315 8.02851 16.0315V14.0315C8.14681 14.0315 8.36046 14.0704 8.54621 14.255C8.7328 14.4405 8.77344 14.6559 8.77344 14.7775H6.77344ZM8.02851 16.0315H9.30538V14.0315H8.02851V16.0315ZM8.30538 15.0315V16.6636H10.3054V15.0315H8.30538ZM8.30538 16.6636C8.30538 16.9544 8.39178 17.3011 8.65137 17.5867C8.92289 17.8855 9.28976 18.0131 9.63873 18.0131V16.0131C9.77261 16.0131 9.9728 16.0671 10.1314 16.2416C10.2781 16.403 10.3054 16.575 10.3054 16.6636H8.30538ZM10.9742 12.3092V7.5901H8.97419V12.3092H10.9742ZM9.97419 8.5901H12.1265V6.5901H9.97419V8.5901ZM12.1265 8.5901C12.7842 8.5901 13.1716 8.76212 13.3839 8.95298C13.5814 9.13053 13.743 9.42741 13.743 9.94909H15.743C15.743 8.97686 15.4201 8.09424 14.7211 7.46577C14.037 6.85062 13.1162 6.5901 12.1265 6.5901V8.5901ZM13.743 9.94909C13.743 10.4604 13.5877 10.76 13.3928 10.94C13.1875 11.1296 12.8047 11.3092 12.1265 11.3092V13.3092C13.1458 13.3092 14.0712 13.036 14.7498 12.4092C15.4387 11.7729 15.743 10.8925 15.743 9.94909H13.743ZM12.1265 11.3092H9.97419V13.3092H12.1265V11.3092Z" fill="#274138" mask="url(#path-3-inside-2_351_236)"/>
</svg>
